<?xml version="1.0" encoding="UTF-8" standalone="no"?>
<!DOCTYPE svg PUBLIC "-//W3C//DTD SVG 1.1//EN" "http://www.w3.org/Graphics/SVG/1.1/DTD/svg11.dtd">
<!-- Created with Vectornator (http://vectornator.io/) -->
<svg height="100%" stroke-miterlimit="10" style="fill-rule:nonzero;clip-rule:evenodd;stroke-linecap:round;stroke-linejoin:round;" version="1.1" viewBox="0 0 3007.85 3503.71" width="100%" xml:space="preserve" xmlns="http://www.w3.org/2000/svg" xmlns:xlink="http://www.w3.org/1999/xlink">
<defs>
<linearGradient gradientTransform="matrix(626.863 -3.04582 3.04582 626.863 -0.84305 2524.83)" gradientUnits="userSpaceOnUse" id="LinearGradient" x1="0" x2="1" y1="0" y2="0">
<stop offset="0" stop-color="#466c94"/>
<stop offset="1" stop-color="#000000"/>
</linearGradient>
<linearGradient gradientTransform="matrix(2769.8 -13.458 13.458 2769.8 231.802 1726.74)" gradientUnits="userSpaceOnUse" id="LinearGradient_2" x1="0" x2="1" y1="0" y2="0">
<stop offset="0" stop-color="#466c94"/>
<stop offset="1" stop-color="#000000"/>
</linearGradient>
<linearGradient gradientTransform="matrix(131.898 -0.640869 0.640869 131.898 1269.38 1074.59)" gradientUnits="userSpaceOnUse" id="LinearGradient_3" x1="0" x2="1" y1="0" y2="0">
<stop offset="0" stop-color="#466c94"/>
<stop offset="1" stop-color="#000000"/>
</linearGradient>
<linearGradient gradientTransform="matrix(120.901 -0.587438 0.587438 120.901 1653.52 1076.64)" gradientUnits="userSpaceOnUse" id="LinearGradient_4" x1="0" x2="1" y1="0" y2="0">
<stop offset="0" stop-color="#466c94"/>
<stop offset="1" stop-color="#000000"/>
</linearGradient>
<linearGradient gradientTransform="matrix(407.715 -1.98102 1.98102 407.715 892.012 2278.28)" gradientUnits="userSpaceOnUse" id="LinearGradient_5" x1="0" x2="1" y1="0" y2="0">
<stop offset="0" stop-color="#466c94"/>
<stop offset="1" stop-color="#000000"/>
</linearGradient>
<linearGradient gradientTransform="matrix(428.569 -2.08234 2.08234 428.569 1215.12 2174.29)" gradientUnits="userSpaceOnUse" id="LinearGradient_6" x1="0" x2="1" y1="0" y2="0">
<stop offset="0" stop-color="#466c94"/>
<stop offset="1" stop-color="#000000"/>
</linearGradient>
<linearGradient gradientTransform="matrix(402.352 -1.95496 1.95496 402.352 1573.56 2061.66)" gradientUnits="userSpaceOnUse" id="LinearGradient_7" x1="0" x2="1" y1="0" y2="0">
<stop offset="0" stop-color="#466c94"/>
<stop offset="1" stop-color="#000000"/>
</linearGradient>
<linearGradient gradientTransform="matrix(408.304 -1.98388 1.98388 408.304 1897.57 1966.13)" gradientUnits="userSpaceOnUse" id="LinearGradient_8" x1="0" x2="1" y1="0" y2="0">
<stop offset="0" stop-color="#466c94"/>
<stop offset="1" stop-color="#000000"/>
</linearGradient>
<linearGradient gradientTransform="matrix(309.605 -1.50432 1.50432 309.605 225.036 681.832)" gradientUnits="userSpaceOnUse" id="LinearGradient_9" x1="0" x2="1" y1="0" y2="0">
<stop offset="0" stop-color="#4e6783"/>
<stop offset="1" stop-color="#000000"/>
</linearGradient>
<linearGradient gradientTransform="matrix(274.626 -1.33436 1.33436 274.626 439.165 518.849)" gradientUnits="userSpaceOnUse" id="LinearGradient_10" x1="0" x2="1" y1="0" y2="0">
<stop offset="0" stop-color="#4e6783"/>
<stop offset="1" stop-color="#000000"/>
</linearGradient>
<linearGradient gradientTransform="matrix(402.975 -1.95799 1.95799 402.975 580.801 372.621)" gradientUnits="userSpaceOnUse" id="LinearGradient_11" x1="0" x2="1" y1="0" y2="0">
<stop offset="0" stop-color="#4e6783"/>
<stop offset="1" stop-color="#000000"/>
</linearGradient>
<linearGradient gradientTransform="matrix(414.72 -2.01506 2.01506 414.72 907.125 224.167)" gradientUnits="userSpaceOnUse" id="LinearGradient_12" x1="0" x2="1" y1="0" y2="0">
<stop offset="0" stop-color="#4e6783"/>
<stop offset="1" stop-color="#000000"/>
</linearGradient>
<linearGradient gradientTransform="matrix(511.493 -2.48526 2.48526 511.493 1321.09 176.684)" gradientUnits="userSpaceOnUse" id="LinearGradient_13" x1="0" x2="1" y1="0" y2="0">
<stop offset="0" stop-color="#4e6783"/>
<stop offset="1" stop-color="#000000"/>
</linearGradient>
<linearGradient gradientTransform="matrix(358.118 -1.74004 1.74004 358.118 1832.17 253.688)" gradientUnits="userSpaceOnUse" id="LinearGradient_14" x1="0" x2="1" y1="0" y2="0">
<stop offset="0" stop-color="#4e6783"/>
<stop offset="1" stop-color="#000000"/>
</linearGradient>
<linearGradient gradientTransform="matrix(400.37 -1.94533 1.94533 400.37 2118.84 410.572)" gradientUnits="userSpaceOnUse" id="LinearGradient_15" x1="0" x2="1" y1="0" y2="0">
<stop offset="0" stop-color="#4e6783"/>
<stop offset="1" stop-color="#000000"/>
</linearGradient>
<linearGradient gradientTransform="matrix(404.981 -1.96773 1.96773 404.981 2374.64 617.647)" gradientUnits="userSpaceOnUse" id="LinearGradient_16" x1="0" x2="1" y1="0" y2="0">
<stop offset="0" stop-color="#4e6783"/>
<stop offset="1" stop-color="#000000"/>
</linearGradient>
<linearGradient gradientTransform="matrix(428.136 -2.08024 2.08024 428.136 166.635 2999.52)" gradientUnits="userSpaceOnUse" id="LinearGradient_17" x1="0" x2="1" y1="0" y2="0">
<stop offset="0" stop-color="#4e6783"/>
<stop offset="1" stop-color="#000000"/>
</linearGradient>
<linearGradient gradientTransform="matrix(392.733 -1.90822 1.90822 392.733 512.301 3184.88)" gradientUnits="userSpaceOnUse" id="LinearGradient_18" x1="0" x2="1" y1="0" y2="0">
<stop offset="0" stop-color="#4e6783"/>
<stop offset="1" stop-color="#000000"/>
</linearGradient>
<linearGradient gradientTransform="matrix(347.614 -1.689 1.689 347.614 885.262 3293.45)" gradientUnits="userSpaceOnUse" id="LinearGradient_19" x1="0" x2="1" y1="0" y2="0">
<stop offset="0" stop-color="#4e6783"/>
<stop offset="1" stop-color="#000000"/>
</linearGradient>
<linearGradient gradientTransform="matrix(291.38 -1.41577 1.41577 291.38 1284.72 3327.04)" gradientUnits="userSpaceOnUse" id="LinearGradient_20" x1="0" x2="1" y1="0" y2="0">
<stop offset="0" stop-color="#4e6783"/>
<stop offset="1" stop-color="#000000"/>
</linearGradient>
<linearGradient gradientTransform="matrix(348.093 -1.69133 1.69133 348.093 1644.43 3288.82)" gradientUnits="userSpaceOnUse" id="LinearGradient_21" x1="0" x2="1" y1="0" y2="0">
<stop offset="0" stop-color="#4e6783"/>
<stop offset="1" stop-color="#000000"/>
</linearGradient>
<linearGradient gradientTransform="matrix(199.78 -0.970699 0.970699 199.78 1973.91 3213.38)" gradientUnits="userSpaceOnUse" id="LinearGradient_22" x1="0" x2="1" y1="0" y2="0">
<stop offset="0" stop-color="#4e6783"/>
<stop offset="1" stop-color="#000000"/>
</linearGradient>
<linearGradient gradientTransform="matrix(339.662 -1.65036 1.65036 339.662 2091.54 3083.44)" gradientUnits="userSpaceOnUse" id="LinearGradient_23" x1="0" x2="1" y1="0" y2="0">
<stop offset="0" stop-color="#4e6783"/>
<stop offset="1" stop-color="#000000"/>
</linearGradient>
<linearGradient gradientTransform="matrix(380.796 -1.85023 1.85023 380.796 2365.27 2870.54)" gradientUnits="userSpaceOnUse" id="LinearGradient_24" x1="0" x2="1" y1="0" y2="0">
<stop offset="0" stop-color="#4e6783"/>
<stop offset="1" stop-color="#000000"/>
</linearGradient>
</defs>
<g id="Ebene-1" visibility="hidden"/>
<clipPath id="ArtboardFrame">
<rect height="3503.71" width="3007.85" x="0" y="0"/>
</clipPath>
<g clip-path="url(#ArtboardFrame)" id="Ebene-3">
<g/>
<g opacity="1">
<path d="M493.358 2320.88L348.13 2389.5L1.13687e-13 2698.34L183.201 2716.42L430.518 2723.04L482.29 2724.03L626.758 2673.71L574.383 2548.8L534.677 2455.08L493.358 2320.88ZM467.43 2416.56L476.732 2454.23L429.708 2486.4L375.764 2528.07L315.358 2580.47L310.034 2592.16L319.043 2592.8L373.577 2602.67L472.751 2602.53L515.935 2596.03L527.862 2626.05L455.3 2647.81L419.128 2652.07L178.24 2639.59L377.159 2465.48L420.166 2434.23L467.43 2416.56Z" fill="url(#LinearGradient)" fill-rule="nonzero" opacity="1" stroke="#000000" stroke-linecap="butt" stroke-linejoin="round" stroke-width="1.52478"/>
<path d="M1496.08 441.889L1457.65 448.363L1420.91 451.43L1389.51 458.832L1346.55 475.693L1311.91 491.493L1277.22 510.409L1243.36 534.758L1221.76 555.253L1182.18 592.374L1160.65 625.442L1144.58 651.801L1127.9 691.869L1114.68 745.797L1113.86 798.531L1113.63 856.247L1114.87 912.767L1125.25 962.785L1131.11 1016.05L1139.91 1066.14L1148.14 1115.88L1158.79 1163.75L1157.53 1207.59L1157.53 1242.03L1150.87 1271.11L1121.78 1308.86L1094.34 1338.22L1060.52 1361.5L1029.01 1379.77L997.673 1389.04L970.612 1391.56L947.558 1391.16L926.956 1382.37L910.226 1366.36L897.679 1348.52L892.15 1329.69L893.121 1296.44L895.464 1254.06L910.874 1266.62L927.556 1272.71L948.997 1267.56L968.301 1253.88L979.031 1235.76L984.673 1219.64L981.91 1198.82L974.715 1175.18L965.247 1149.96L948.626 1132.99L928.982 1123.23L909.724 1123.16L897.534 1085.49L888.606 1054.9L918.9 1029.94L939.633 1007.3L959.077 975.77L970.65 944.732L976.377 911.061L975.603 880.14L967.919 837.301L954.622 805.082L935.967 777.476L922.457 759.531L890.786 734.197L858.829 719.853L828.209 712.695L787.625 706.323L749.177 708.435L718.302 718.553L690.499 731.659L661.64 748.734L640.107 770.022L620.057 793.397L606.569 815.042L595.777 843.697L590.814 871.361L592.499 903.354L592.545 936.148L600.338 966.355L614.082 997.383L631.929 1021.93L657.329 1050.58L684.941 1068.12L712.3 1080.39L749.141 1085.76L789.761 1087.83L824.987 1087.15L850.674 1151.42L824.627 1176.24L801.66 1205.3L782.061 1239.83L771.002 1271.94L768.412 1309.9L767.756 1349.78L775.584 1387.29L794.336 1423.22L815.141 1450.37L839.359 1468.71L870.897 1490.02L898.932 1501.5L935.539 1505.4L967.811 1502.81L1012.26 1500.33L1038.33 1492.27L1068.69 1481.13L1096.17 1470.3L1115.93 1457.68L1127.03 1446.47L1135.03 1448.02L1130.34 1462.65L1106.89 1485.88L1082.64 1508.03L1057.04 1531.32L1028.08 1550.54C1028.08 1550.54 997.035 1566.86 991.754 1569.64C986.473 1572.41 963.533 1584.69 957.399 1586.34C951.264 1588 930.385 1594.46 922.224 1597.56C914.062 1600.65 878.402 1608 873.174 1609.07C867.946 1610.14 842.319 1611.04 835.971 1610.78C829.623 1610.51 807.684 1605.65 807.683 1605.65C807.683 1605.65 787.918 1598.16 784.184 1595.17C780.45 1592.18 763.34 1578.52 760.406 1573.99C757.472 1569.46 749.89 1555.46 744.716 1550.45C739.541 1545.43 730.709 1531.84 726.975 1524.48C723.241 1517.12 709.459 1498.23 709.459 1498.23C709.459 1498.23 700.463 1484.91 697.369 1481.13C694.275 1477.34 675.537 1464.07 675.537 1464.07L647.773 1450.16L624.034 1448.69L596.407 1451.31L577.25 1425.3L566.885 1401.9L551.659 1380.68L570.638 1358.33L588.93 1334.68L602.113 1308.44L611.373 1279.17L613.71 1247.27L612.715 1205.76L605.022 1172.78L591.355 1145.89L574.331 1115.89L549.122 1091.72L520.423 1071.75L491.024 1059.32L470.885 1052.85L443.388 1047.15L416.709 1046.77C416.709 1046.77 398.351 1050.51 396.29 1052.36C394.229 1054.21 380.53 1059.05 377.634 1059.59C374.738 1060.13 354.901 1066.95 354.901 1066.95L335.248 1078.71L317.978 1091.31L301.104 1103.85L286.572 1120.46L273.957 1135.31L261.553 1158.7L252.741 1175.23L246.313 1204.48L242.635 1228.46L244.679 1252.86L249.683 1280.25L257.673 1304.28L265.655 1326.79L275.479 1343.62L295.124 1365.33L313.061 1385.01L330.976 1400.16L353.784 1408.26L377.733 1418L399.051 1422.42L423.068 1422.99L449.758 1425.69L470.41 1421.34L481.999 1416.87C481.999 1416.87 501.055 1430.38 498.567 1434.46C496.079 1438.54 528.531 1481.49 528.531 1481.49L519.821 1495.75L511.303 1514.6L507.84 1536.25L507.324 1558.17L508.509 1580.59L517.505 1602.02L536.711 1614.84L558.651 1630.7L581.1 1634.84L607.777 1634.83L589.383 1602.74L577.724 1581.11L573.686 1566.12L576.187 1556.14C576.187 1556.14 584.752 1553.39 592.165 1557.36C599.577 1561.34 606.598 1572.15 611.067 1577.55C615.536 1582.94 624.627 1597.29 627.843 1603.24C631.06 1609.19 644.259 1628.78 648.548 1632.98C652.836 1637.19 668.043 1658.72 668.043 1658.72L694.515 1686.4L718.347 1707.07L745.822 1719.91L776.952 1727.17L803.121 1727.44L835.629 1726.89L877.93 1725.27L911.967 1724.59L942.264 1712.1L965.396 1705.25L970.102 1729.58L967.741 1756.55L975.461 1783.36L987.54 1809.69L1004.66 1835.78L1007.33 1850.43L983.598 1861.14L957.668 1874.8L937.647 1869.12L905.876 1858.18L869.065 1847.42L830.379 1835.38L802.534 1828.09L722.251 1811.15L695.311 1815.36L654.782 1831.87L253.527 1978.02L233.065 1986.67L237.572 2004.95C237.572 2004.95 247.13 2010.18 253.232 2010.65C259.335 2011.11 603.152 2140.24 603.153 2140.24L602.114 2159.55L603.987 2172.12L607.62 2185.41L609.737 2201.43L581.239 2211.25L552.816 2224.93L521.683 2240.37L555.292 2384.81L605.438 2529.05L651.997 2622.67L703.204 2717.07L800.038 2701.53L821.268 2746.34L825.412 2771.58L708.342 2935.22L840.128 3002.48L1203.01 2919.84C1203.01 2919.84 1304.42 2786.44 1304.38 2778.26C1304.34 2770.08 1480.7 2743.37 1480.7 2743.37L1635.91 2700.93L1783.34 2653.77L1872.48 2618.22L1861.86 2705.32L1845.84 2752.98L1832.65 2790.36L1899.12 2761.21L1956.86 2719.53L2014.1 2668.84L2056.24 2610.53L2086.62 2557.14L2101.93 2514.87C2101.93 2514.87 2234.67 2437.77 2237.71 2435.71C2240.75 2433.65 2345.81 2360.65 2345.81 2360.65L2502.02 2245.53L2618.74 2137.3L2746 2018.08L2849.68 1897.89L2951.78 1752.57L3001.33 1658.99L2905.72 1623.21L2755.99 1592.5L2634.92 1573.49L2440.25 1560.79L2411.5 1565.68L2414.74 1532.54L2422.58 1514.15L2434.66 1506.95L2457.9 1522.58L2478.88 1527.81L2507.66 1517.64L2521.85 1487.16L2527.41 1456.15L2515.07 1432.7L2505.02 1416.67L2497 1409.63L2516.36 1371.7L2547.24 1375.06L2578.48 1381.93L2609.4 1379.97L2636.67 1374.45L2663.7 1365.88L2692.57 1350.51L2722.34 1323.4L2743.69 1298.89L2755.25 1276.35L2765.2 1249.45L2768.03 1225.71C2768.03 1225.71 2776.34 1198.85 2773.87 1203.36C2771.39 1207.88 2775.32 1164.73 2775.32 1164.73L2762.96 1115.91L2735.27 1068.92L2692.95 1032.59L2642.05 1013.3L2583.62 1004.97L2536.14 1013.13L2498.55 1029.29L2462.01 1050.71L2437.52 1080.5L2415.18 1110.4L2404.14 1146.82L2395.55 1186.4L2398.84 1222.57L2405.74 1254.09L2419.37 1284.83L2435.85 1308.82L2453.89 1326.86L2441.99 1360.73L2431.9 1381.62L2399.39 1382.35L2377.41 1391.97L2352.85 1407.83L2334.07 1426.16L2321.23 1452.96L2308.31 1486.38L2299.23 1516.73L2288.53 1540.29L2276.51 1561.47L2079.49 1579.02L2060.46 1579.96L2047.76 1577.14L2029.27 1570.94L2002.51 1554.08L1968.34 1527.96L1945.32 1510.18L1922.65 1484.91L1893.47 1447.16L1922.98 1459.82L1948.66 1475.84L1979.32 1490.81L2012.22 1500.45L2045.16 1507.37L2082.56 1512.46L2119.15 1512.34L2143.6 1507.74L2165.93 1500.04L2188.25 1487.7L2213.04 1473.36L2232.42 1452.71L2245.79 1429.93L2257.95 1403.08L2267.81 1379.64L2269.12 1358.85L2268.94 1332.97L2268.73 1312.13L2265.67 1289.32L2256.65 1262.85L2241.61 1232.45L2228.71 1213.26L2220.27 1200.16L2216.33 1182.91L2219.35 1164.09L2227.6 1124.51L2236.76 1097.9L2246.27 1084.44L2268.8 1083.19L2292.16 1076.57L2322.41 1066.28L2344.55 1053.2L2375.08 1028.93L2394.84 1005.61L2410.19 981.802L2422.92 955.573L2429.98 928.579L2432.15 897.247L2427.33 859.889L2423.52 835.213L2412.54 812.838L2400.14 789.903L2382.76 768.351L2366.02 751.214L2344.76 735.289L2315.63 719.798L2289.48 710.013L2268.39 707.397L2246.86 704.613L2218.32 707.131L2197.43 708.252L2153.45 726.646L2118.85 749.64L2089.08 777.877L2070.81 806.229L2058.46 829.454L2050.55 856.736L2045.05 891.085L2047.74 918.655L2051 948.941L2059.15 971.614L2075.67 1003.48L2094.98 1026.21L2118.52 1044.39L2131.54 1054.41L2144.44 1062.84C2144.44 1062.84 2141.74 1079.87 2137.89 1079.24C2134.04 1078.61 2118.52 1114.79 2118.52 1114.79L2106.48 1142.38L2095.39 1178.91L2092.1 1202.31L2094.25 1225.24L2099.31 1240.91L2114.33 1266.72L2128.46 1293.78L2139.31 1312.87L2144.91 1333.91L2146.59 1353.22L2144.19 1373.62L2130.14 1383.94L2113.87 1392.46L2097.01 1396.28L2068.74 1394.66L2046.5 1386.67L2026.58 1379.46L1996.61 1364.88L1978.88 1353.07L1960.81 1340.81L1942.88 1324.02L1923.64 1302.48L1906.14 1280.81L1896.59 1262.28L1890.27 1243.22L1886.33 1224.95L1886.14 1196.74L1888.85 1159.8L1900.08 1083.12L1915.31 1011.68L1930.26 929.591L1940.15 842.093L1940.86 778.371L1936.14 740.899L1927.44 709.79L1914.22 670.32L1900.07 637.765L1873.43 597.624L1854.4 575.798L1835.63 558.444L1812.43 538.903L1787.1 514.049L1760.3 500.359L1727.82 483.469L1695.92 469.804L1661.08 456.493L1613.56 444.603L1584.05 443.67L1543.83 442.45L1496.08 441.889ZM763.84 765.399L799.59 767.604L829.069 773.068L858.205 789.635L885.332 812.329L905.963 838.622L910.935 871.108L916.294 925.003L897.068 966.272L872.369 1000.38L835.702 1019.3L803.544 1033.5L763.957 1034.15L730.369 1022.31L702.524 1003.35L669.207 977.235L657.987 941.267L654.58 857.798L667.802 828.112L690.223 803.082L711.368 783.665L733.005 772.232L763.84 765.399ZM2233.44 764.375C2233.44 764.375 2266 768.784 2271.8 768.38C2277.61 767.976 2313.87 788.283 2313.87 788.283L2344.1 820.59L2360.66 859.873L2365.77 896.267L2359.82 943.136L2336.16 981.709L2310.24 1008.68L2279.38 1021.52L2246.17 1030.35L2203 1027.89L2169.12 1013.9L2137.78 986.694L2113.47 949.601L2105.01 909.032L2113.47 867.474L2127.38 827.193L2155.69 790.694L2184.84 774.127L2233.44 764.375ZM1311.18 924.556L1352.97 934.265L1394.72 960.286L1425.58 992.307L1445.86 1028.85L1456.28 1063.47L1449.17 1104.56L1432.23 1137.04L1402.73 1163.47L1365.05 1183.13L1326.37 1184.74L1282.5 1176.34L1259.45 1153.63L1235.42 1127.41L1221.54 1104.65L1216.87 1075.22L1208.59 1038.16L1221.68 992.845L1243.08 956.265C1243.08 956.265 1266.25 936.071 1273.79 934.197C1281.32 932.323 1311.18 924.556 1311.18 924.556ZM1755.92 927.833L1790.63 937.972L1821.1 960.876L1833.56 995.592L1838.54 1028.42L1839.71 1060.3L1832.4 1094.04L1815.4 1128.04L1787.06 1157.75L1760.58 1174.76L1719.06 1185.6L1689.53 1182.07L1656.27 1168.13L1629.84 1148.77L1608.84 1115.91L1602.7 1077.2L1604.39 1039.18L1617.58 1003.78L1642.86 971.937L1680.62 946.436L1716.74 930.175L1755.92 927.833ZM2569.96 1061.79L2619.76 1064.84L2661.73 1077.49C2661.73 1077.49 2686.68 1104.27 2691.39 1107.65C2696.1 1111.03 2712.77 1149.05 2714.21 1154.21C2715.66 1159.36 2719.9 1193.43 2719.9 1193.43L2711.65 1231.93L2693.56 1263.73L2670.52 1299.53L2623.96 1322.41L2580.04 1329.82L2536.42 1316.38L2491.24 1284.77L2466.92 1245.41L2459.19 1217.18L2461.3 1196.04L2467.42 1150.7L2488.21 1116.11L2519.87 1081.41L2569.96 1061.79ZM436.199 1106.31L473.609 1112.25C473.609 1112.25 504.674 1130.14 509.899 1132.35C515.124 1134.56 534.389 1160.15 534.389 1160.15L545.395 1187.29L556.184 1216.12L561.326 1248.78L554.501 1277.86L536.2 1311.48L510.829 1335.28L481.694 1354.06L451.954 1364.68L422.564 1365.84L395.365 1363.26L365.859 1352.24L338.063 1331.76L314.649 1303.72L304.684 1269.62L299.833 1238.66L303.243 1206.19L317.722 1178.59L337.879 1154.03L367.665 1129.42L404.102 1109.92L436.199 1106.31ZM1732.83 1432.82L1740.37 1433.64L1744.9 1445.22L1750.66 1466.27L1774.9 1500.41L1801.42 1536.93L1832.68 1571.22L1875.16 1607.54L1852.1 1617.62C1852.1 1617.62 1816.99 1627.58 1813.13 1628.91C1809.28 1630.24 1805.9 1631.27 1805.9 1631.27L1800.4 1618.38L1787.51 1600.94L1771.55 1579.1L1756.08 1555.56L1742.31 1519.09L1738.68 1495.27C1738.68 1495.27 1728.92 1448.71 1730.62 1443.88C1732.31 1439.05 1732.83 1432.82 1732.83 1432.82ZM1297.55 1442.81L1305.32 1455.06L1271.14 1544.21L1255.99 1595.94L1240.77 1646.65L1242.41 1692.01L1257.39 1732.49L1213.92 1749.52L1157.68 1774.88L1082.96 1817.61L1062.72 1825.58L1066.7 1806.02L1075.38 1774.43L1087.59 1722.78L1115.42 1679.2L1136.49 1643.75L1172.43 1603.99L1217.69 1559.48L1251.39 1512.76L1279.07 1461.19L1297.55 1442.81ZM1530.38 1450.91L1545.01 1466.08L1565.73 1499.51L1586.91 1545.11L1603.8 1582.35L1612.04 1612.33C1612.04 1612.33 1574.81 1625.11 1567.6 1627.22C1560.38 1629.33 1513.12 1640.45 1513.12 1640.45L1453.61 1668.38L1408.11 1688.03L1389.27 1690.78L1392.35 1671.85L1401.24 1648.3L1423.58 1594.78L1456.3 1532.89L1483.54 1485.75L1502.34 1463L1517.88 1454.37L1530.38 1450.91ZM2388.52 1640.11L2408.38 1762.58L2428.9 1859.22L2463.19 1946.61L2493.48 2012.96L2524.6 2065.26L2428.98 2144.33L2364.37 2193.47L2245.14 2273.97L2130.83 2342.09L2058.4 2378.69L2001.32 2299.62L1986 2283.04L1959.54 2281.13L1909.61 2297.18L1860.64 2313.05L1721.51 2354.67L1416.53 2452.84L1382.33 2466.14L1375.11 2518.17L1370.9 2585.65L1367.09 2627.98L1220.32 2660.18L1022.9 2686.74L865.558 2687.73L798.188 2554.05L745.714 2396.91L695.458 2241.85L663.34 2147.76L744.639 2082.4L826.318 2025.42L972.677 1933.12L1234.86 1805.43L1281.43 1784.59L1298.02 1783.43L1327.84 1811.95L1368.13 1839.67L1410.08 1858.78L1453.25 1872.56L1476.63 1870.13L1482.57 1858.26L1447.18 1813.63L1398.85 1750.38L1484.68 1709.86L1561.66 1688.36L1622.06 1668.41L1650.72 1658.42L1681.81 1668.12L1715.92 1694.41L1762.18 1714.57L1795.48 1725L1831.01 1728.62L1868 1719.38L1939 1701.65L2072.34 1670.13L2209.74 1656.44C2209.74 1656.44 2318.62 1643.52 2324.66 1644.1C2330.69 1644.68 2388.52 1640.11 2388.52 1640.11Z" fill="url(#LinearGradient_2)" fill-rule="nonzero" opacity="1" stroke="#000000" stroke-linecap="butt" stroke-linejoin="round" stroke-width="1.52478"/>
<path d="M1284.75 1093.66L1269.3 1059.24L1278.27 1030.54L1305.16 1019.04L1345.94 1030.65L1373.02 1044.68L1393.25 1062.82L1401.32 1083.03L1392.18 1112.42L1368.63 1129.48L1336.34 1129.08L1306.7 1125.33L1291.87 1113.27L1284.75 1093.66Z" fill="url(#LinearGradient_3)" fill-rule="nonzero" opacity="1" stroke="#000000" stroke-linecap="butt" stroke-linejoin="round" stroke-width="1.52478"/>
<path d="M1659.22 1103.46L1653.54 1080.3L1660.52 1062.77L1689.48 1044.69C1689.48 1044.69 1719.29 1029.74 1724.06 1028.59C1728.83 1027.44 1757.05 1025.18 1757.05 1025.18L1768.99 1034.92L1773.88 1052.72L1774.43 1077.62L1768.8 1099.07L1754.81 1114.75L1733.69 1124.28L1704.44 1126.08L1684.08 1127.45L1669.91 1120.57L1659.22 1103.46Z" fill="url(#LinearGradient_4)" fill-rule="nonzero" opacity="1" stroke="#000000" stroke-linecap="butt" stroke-linejoin="round" stroke-width="1.52478"/>
<path d="M891.314 2134.72L1162.34 2036.79L1191.32 2119.36L996.04 2182.65L1019.88 2252.55L1199.52 2193.13L1228 2277.67L1045.33 2334.03L1069.17 2409.3L1270.4 2345.28L1300.46 2426.89L1015.49 2517.86L891.314 2134.72Z" fill="url(#LinearGradient_5)" fill-rule="nonzero" opacity="1" stroke="#000000" stroke-linecap="butt" stroke-linejoin="round" stroke-width="1.52478"/>
<path d="M1420.68 2388.83L1341.55 2414.26L1214.43 2032.47L1296.45 2005L1402.81 2083.17L1429.44 1959.06L1513.81 1932.26L1644.35 2307.66L1567.18 2333.45L1480.52 2086.02L1447.92 2224.01L1329.61 2128.4L1420.68 2388.83Z" fill="url(#LinearGradient_6)" fill-rule="nonzero" opacity="1" stroke="#000000" stroke-linecap="butt" stroke-linejoin="round" stroke-width="1.52478"/>
<path d="M1839.71 1829.45L1572.84 1914.18L1692.2 2292L1976.62 2205.21L1924.71 2071L1873.44 2021.47L1897.98 1990.99L1839.71 1829.45ZM1789.36 1934.42L1816.63 1999.31L1698.77 2034.04L1679.54 1971.21L1789.36 1934.42ZM1836.79 2080.32L1861.65 2149.24L1750.08 2184.45L1724.25 2114.4L1836.79 2080.32Z" fill="url(#LinearGradient_7)" fill-rule="nonzero" opacity="1" stroke="#000000" stroke-linecap="butt" stroke-linejoin="round" stroke-width="1.52478"/>
<path d="M2123.52 1735.02C2123.52 1735.02 1892.48 1812 1896.88 1811.22C1901.28 1810.45 2015.2 2195.56 2015.2 2195.56C2015.2 2195.56 2090.13 2170.36 2095.34 2172.24C2100.56 2174.11 2055.49 2047.48 2055.49 2047.48L2168.36 2010.46L2227.04 2116.77L2306.46 2084.27L2123.52 1735.02ZM2082.22 1838.13L2133.27 1935.7L2033.48 1970.96L2000.56 1863.68L2082.22 1838.13Z" fill="url(#LinearGradient_8)" fill-rule="nonzero" opacity="1" stroke="#000000" stroke-linecap="butt" stroke-linejoin="round" stroke-width="1.52478"/>
</g>
<g opacity="1">
<path d="M535.291 814.023L486.055 874.652L225.013 676.998L384.681 486.969L439.601 532.204L326.061 663.182L373.648 693.517L485.414 587.581L533.18 632.31L432.916 745.053L535.291 814.023Z" fill="url(#LinearGradient_9)" fill-rule="nonzero" opacity="1" stroke="#000000" stroke-linecap="butt" stroke-linejoin="round" stroke-width="2.00119"/>
<path d="M500.202 369.309L438.684 419.924L651.592 667.06C651.592 667.06 708.682 613.145 714.169 616.132C719.655 619.119 500.202 369.309 500.202 369.309Z" fill="url(#LinearGradient_10)" fill-rule="nonzero" opacity="1" stroke="#000000" stroke-linecap="butt" stroke-linejoin="round" stroke-width="2.00119"/>
<path d="M795.058 161.195L580.457 301.852L761.477 582.128L828.038 537.626L756.41 436.93L806.441 405.876L913.517 481.591L984.116 440.695L861.064 352.2L896.611 324.444L795.058 161.195ZM775.052 263.525L810.237 312.857C810.237 312.857 715.793 376.254 711.825 376.487C707.858 376.72 681.327 324.358 681.327 324.358L775.052 263.525Z" fill="url(#LinearGradient_11)" fill-rule="nonzero" opacity="1" stroke="#000000" stroke-linecap="butt" stroke-linejoin="round" stroke-width="2.00119"/>
<path d="M1082.98 407.318L1008.17 430.898L906.575 110.886L989.671 83.0042L1097.56 152.118L1139.16 35.4812L1222.27 15.4137L1322.46 348.294L1247.12 367.129L1182.02 154.597L1128.36 271.996L1018.69 196.957L1082.98 407.318Z" fill="url(#LinearGradient_12)" fill-rule="nonzero" opacity="1" stroke="#000000" stroke-linecap="butt" stroke-linejoin="round" stroke-width="2.00119"/>
<path d="M1408.71 1.77847L1320.27 7.51277L1407.18 341.074L1529.2 338.892L1576.95 161.626L1608.28 336.323L1724.56 350.176L1831.82 17.0021L1748.33 6.10006L1672.32 268.012L1617.97 3.71592L1543.21 0.151881L1471.88 268.738L1408.71 1.77847Z" fill="url(#LinearGradient_13)" fill-rule="nonzero" opacity="1" stroke="#000000" stroke-linecap="butt" stroke-linejoin="round" stroke-width="2.00119"/>
<path d="M1955.31 45.5087L1832.71 366.51L1903.52 391.257L1949.19 278.21L2048.94 315.164L2003.98 434.437L2073.54 460.096L2189.71 133.066L1955.31 45.5087ZM1996.05 143.409L2099.71 179.947L2076.74 243.947L1971 209.175L1996.05 143.409Z" fill="url(#LinearGradient_14)" fill-rule="nonzero" opacity="1" stroke="#000000" stroke-linecap="butt" stroke-linejoin="round" stroke-width="2.00119"/>
<path d="M2304.22 188.752C2304.22 188.752 2119.34 476.764 2119.18 481.057C2119.03 485.351 2184.96 519.818 2184.96 519.818L2261.77 406.111L2310.77 441.046L2279.35 584.268L2346.75 630.384L2373.94 480.896L2405.61 504.473L2518.9 344.032L2304.22 188.752ZM2322.37 288.631C2326.21 284.591 2423.2 360.695 2423.2 360.695L2387.93 410.312L2290.27 337.893C2290.27 337.893 2318.54 292.671 2322.37 288.631Z" fill="url(#LinearGradient_15)" fill-rule="nonzero" opacity="1" stroke="#000000" stroke-linecap="butt" stroke-linejoin="round" stroke-width="2.00119"/>
<path d="M2374.78 646.055L2548.09 823.981L2598.53 770.697L2474.98 642.036L2515.45 602.407L2623.66 719.94L2679.23 666.435L2564.68 550.457L2609.02 507.893L2728.62 646.874L2779.53 596.081L2606.05 409.345L2374.78 646.055Z" fill="url(#LinearGradient_16)" fill-rule="nonzero" opacity="1" stroke="#000000" stroke-linecap="butt" stroke-linejoin="round" stroke-width="2.00119"/>
<path d="M214.12 2993.19L166.9 3054.06L398.877 3213.3L520.203 3033.53L358.457 2926.75L389.829 2879.7L557.117 2992.97L594.473 2936.06L365.295 2783.64L248.88 2944.54L413.63 3056.53L374.605 3106.08L214.12 2993.19Z" fill="url(#LinearGradient_17)" fill-rule="nonzero" opacity="1" stroke="#000000" stroke-linecap="butt" stroke-linejoin="round" stroke-width="2.00119"/>
<path d="M512.798 3286.98L760.513 3395.36L795.637 3325.31L616.847 3248.22L641.573 3198.24L793.219 3257.54L824.73 3191.96L673.025 3131.16L699.316 3076.18L873.516 3153.1L904.544 3081.98L655.375 2972.51L512.798 3286.98Z" fill="url(#LinearGradient_18)" fill-rule="nonzero" opacity="1" stroke="#000000" stroke-linecap="butt" stroke-linejoin="round" stroke-width="2.00119"/>
<path d="M1110.63 3361.62L1183.78 3376.02L1162.92 3489.71L885.93 3431.01L963.819 3095.47L1232.18 3147.88L1204.11 3270.81L1127.95 3261.23L1137.04 3208.02L1028.96 3187.76L984.93 3373.06L1102.73 3395.68L1110.63 3361.62Z" fill="url(#LinearGradient_19)" fill-rule="nonzero" opacity="1" stroke="#000000" stroke-linecap="butt" stroke-linejoin="round" stroke-width="2.00119"/>
<path d="M1380.28 3149.06L1294.37 3149.52L1285.55 3496.33L1576.97 3503.71L1572.97 3147.55L1492.05 3150.89L1495.05 3425.44L1369.56 3423.47L1380.28 3149.06Z" fill="url(#LinearGradient_20)" fill-rule="nonzero" opacity="1" stroke="#000000" stroke-linecap="butt" stroke-linejoin="round" stroke-width="2.00119"/>
<path d="M1907.55 3086.67L1643.72 3142.27L1704.36 3489.4L1788.12 3474.15L1762.99 3351.14L1821.11 3340.72L1903.22 3452.98L1993.22 3430.4L1901.42 3316.83L1961.29 3305.27L1907.55 3086.67ZM1849.83 3178.82L1863.8 3254.76L1745.01 3275.05L1733.55 3201.93L1849.83 3178.82Z" fill="url(#LinearGradient_21)" fill-rule="nonzero" opacity="1" stroke="#000000" stroke-linecap="butt" stroke-linejoin="round" stroke-width="2.00119"/>
<path d="M2047.76 3033.59L1973.18 3063.61L2099.05 3392.2L2174.43 3363.49L2047.76 3033.59Z" fill="url(#LinearGradient_22)" fill-rule="nonzero" opacity="1" stroke="#000000" stroke-linecap="butt" stroke-linejoin="round" stroke-width="2.00119"/>
<path d="M2091.2 3014.4L2126.07 3082.32L2220.02 3034.12L2358.94 3282.17L2431.98 3242.75L2293.95 2997.21L2376.95 2952.37L2334.58 2882.24L2091.2 3014.4Z" fill="url(#LinearGradient_23)" fill-rule="nonzero" opacity="1" stroke="#000000" stroke-linecap="butt" stroke-linejoin="round" stroke-width="2.00119"/>
<path d="M2436.26 2801.3L2365.23 2861.92L2584.3 2957.18L2684.04 3066.41L2746.77 3013.19L2655.87 2906.2L2584.22 2672.07L2523.65 2730.81C2523.65 2730.81 2564.18 2860.55 2568.75 2862.92C2573.33 2865.29 2436.26 2801.3 2436.26 2801.3Z" fill="url(#LinearGradient_24)" fill-rule="nonzero" opacity="1" stroke="#000000" stroke-linecap="butt" stroke-linejoin="round" stroke-width="2.00119"/>
</g>
</g>
</svg>
