<?xml version="1.0" encoding="UTF-8" standalone="no"?>
<!-- Created with Inkscape (http://www.inkscape.org/) -->

<svg
   width="10cm"
   height="10cm"
   viewBox="0 0 100 100"
   version="1.1"
   id="svg3491"
   inkscape:export-filename="C:\Users\z003xz3p\Desktop\bg.png"
   inkscape:export-xdpi="96"
   inkscape:export-ydpi="96"
   inkscape:version="1.1 (c68e22c387, 2021-05-23)"
   sodipodi:docname="bg.svg"
   xmlns:inkscape="http://www.inkscape.org/namespaces/inkscape"
   xmlns:sodipodi="http://sodipodi.sourceforge.net/DTD/sodipodi-0.dtd"
   xmlns="http://www.w3.org/2000/svg"
   xmlns:svg="http://www.w3.org/2000/svg">
  <sodipodi:namedview
     id="namedview3493"
     pagecolor="#505050"
     bordercolor="#eeeeee"
     borderopacity="1"
     inkscape:pageshadow="0"
     inkscape:pageopacity="0"
     inkscape:pagecheckerboard="0"
     inkscape:document-units="mm"
     showgrid="false"
     width="10mm"
     units="cm"
     inkscape:object-paths="true"
     inkscape:snap-intersection-paths="true"
     inkscape:snap-smooth-nodes="true"
     inkscape:snap-midpoints="true"
     inkscape:snap-object-midpoints="true"
     inkscape:snap-center="true"
     inkscape:snap-text-baseline="true"
     inkscape:snap-bbox="true"
     inkscape:bbox-paths="true"
     inkscape:snap-page="true"
     inkscape:zoom="1.4142136"
     inkscape:cx="335.52217"
     inkscape:cy="285.31759"
     inkscape:window-width="3440"
     inkscape:window-height="1387"
     inkscape:window-x="-8"
     inkscape:window-y="-8"
     inkscape:window-maximized="1"
     inkscape:current-layer="layer1" />
  <defs
     id="defs3488" />
  <g
     inkscape:label="Ebene 1"
     inkscape:groupmode="layer"
     id="layer1">
    <path
       id="rect1210-09-7-1-5-4-9-6-5-7-4-4-4-0-0-7"
       style="fill:#250539;fill-opacity:1;stroke:none;stroke-width:0.171376"
       d="m -134.9912,95.371301 2.21763,2.217612 3.94265,3.942657 1.88959,-1.890658 -3.94265,-3.942655 -0.32696,-0.326956 z" />
    <path
       id="rect1210-09-7-1-5-4-9-6-5-7-4-4-4-0-0-3"
       style="fill:#250539;fill-opacity:1;stroke:none;stroke-width:0.171376"
       d="m -130.72157,99.640912 2.21761,2.217608 3.94265,3.94268 1.88959,-1.89066 -3.94265,-3.942652 -0.32696,-0.326976 z" />
    <path
       id="rect1210-09-7-1-5-4-9-6-5-7-4-4-4-0-0-3-9"
       style="fill:#250539;fill-opacity:1;stroke:none;stroke-width:0.171376"
       d="m -139.26079,91.10167 2.21761,2.217612 3.94265,3.942655 1.88959,-1.890636 -3.94265,-3.942675 -0.32696,-0.326956 z" />
    <ellipse
       style="fill:#250539;fill-opacity:1;stroke-width:0.570983"
       id="path12153-6-4-0"
       cx="-181.41119"
       cy="197.64008"
       rx="1.9262234"
       ry="1.8354299" />
    <path
       id="rect1210-09-7-1-7-7-5-1"
       style="fill:#250539;fill-opacity:1;stroke:none;stroke-width:0.208602"
       d="m -142.14341,123.35017 h -8.26042 -8.26113 v 2.67263 h 8.26113 8.26042 z" />
    <path
       id="rect1210-09-7-1-7-7-5-1-0"
       style="fill:#250539;fill-opacity:1;stroke:none;stroke-width:0.307204"
       d="m -156.12151,110.49358 h -17.91499 -17.91658 v 2.67263 h 17.91658 17.91499 z" />
    <path
       id="rect1210-09-7-1-7-7-5-1-0-0"
       style="fill:#250539;fill-opacity:1;stroke:none;stroke-width:0.199569"
       d="m -131.21094,95.371301 h -7.56049 -7.56113 v 2.672631 h 7.56113 7.56049 z" />
    <path
       id="rect1210-09-7-1-7-7-5-1-0-0-1"
       style="fill:#250539;fill-opacity:1;stroke:none;stroke-width:0.209766"
       d="m -135.48055,91.10167 h -8.35284 -8.35355 v 2.672631 h 8.35355 8.35284 z" />
    <path
       id="rect1210-09-7-1-5-4"
       style="fill:#250539;fill-opacity:1;stroke:none;stroke-width:0.11865"
       d="m -69.50104,145.83754 h -2.672404 -2.672631 v 2.67263 h 2.672631 2.672404 z" />
    <path
       d="m -52.774882,123.35017 h -11.035124 -11.036069 v 2.67263 h 11.036069 11.035124 z"
       style="fill:#250539;fill-opacity:1;stroke:none;stroke-width:0.241104"
       id="rect1210-09-7-1-7-7-5" />
    <path
       d="m -63.81091,134.59384 h -5.517346 -5.517819 v 2.67266 h 5.517819 5.517346 z"
       style="fill:#250539;fill-opacity:1;stroke:none;stroke-width:0.170483"
       id="rect1210-09-7-1-0-2-2" />
    <path
       id="rect1210-09-7-1-0-8-5-8"
       style="fill:#250539;fill-opacity:1;stroke:none;stroke-width:0.418052"
       d="M -8.4906512,157.08123 H -41.666956 -74.846075 v 2.67263 h 33.179119 33.1763048 z" />
    <path
       id="rect1210-09-7-1-7-9-9-5"
       style="fill:#250539;fill-opacity:1;stroke:none;stroke-width:0.220282"
       d="m -56.422258,168.32492 h -9.211518 -9.212299 v 2.67263 h 9.212299 9.211518 z" />
    <path
       id="rect1210-09-7-1"
       style="fill:#250539;fill-opacity:1;stroke:none;stroke-width:0.294743"
       d="m -109.83107,80.54108 v 16.491356 16.492774 h 2.67265 V 97.032436 80.54108 Z" />
    <path
       id="rect1210-09-7-1-2"
       style="fill:#250539;fill-opacity:1;stroke:none;stroke-width:0.176576"
       d="m -115.45348,89.060929 v 5.918789 5.919302 h 2.67264 v -5.919302 -5.918789 z" />
    <path
       d="m -132.31843,108.18017 v 2.67241 2.67263 h 2.67263 v -2.67263 -2.67241 z"
       style="fill:#250539;fill-opacity:1;stroke:none;stroke-width:0.11865"
       id="rect1210-09-7-1-7" />
    <path
       d="m -154.52379,107.81353 v 6.14737 6.1479 h 2.67263 v -6.1479 -6.14737 z"
       style="fill:#250539;fill-opacity:1;stroke:none;stroke-width:0.179953"
       id="rect1210-09-7-1-7-3" />
    <path
       d="m -121.07474,108.18017 v 2.67241 2.67263 h 2.67264 v -2.67263 -2.67241 z"
       style="fill:#250539;fill-opacity:1;stroke:none;stroke-width:0.11865"
       id="rect1210-09-7-1-0" />
    <path
       id="rect1210-09-7-1-0-8"
       style="fill:#250539;fill-opacity:1;stroke:none;stroke-width:0.211227"
       d="m -98.587379,96.584936 v 8.469764 8.47051 h 2.672631 v -8.47051 -8.469764 z" />
    <path
       id="rect1210-09-7-1-0-8-3"
       style="fill:#171717;fill-opacity:1;stroke:none;stroke-width:0.525906"
       d="M 96.769531 -28.199219 L 96.769531 38.367188 L 96.769531 71.654297 L 96.769531 81.394531 L 96.769531 100.1875 A 6.9370578 6.9370578 0 0 0 94.884766 104.93945 A 6.9370578 6.9370578 0 0 0 101.82031 111.87695 A 6.9370578 6.9370578 0 0 0 108.75781 104.93945 A 6.9370578 6.9370578 0 0 0 106.87109 100.18359 L 106.87109 75.839844 L 113.94336 68.767578 L 128.8457 53.867188 L 133.5 49.214844 L 140.94922 41.763672 L 144.67578 38.039062 L 148.40039 34.3125 L 155.85156 26.863281 L 162.20117 20.513672 L 185.38281 20.513672 L 197.33008 32.458984 L 206.63867 41.763672 L 221.53906 56.666016 L 230.84766 65.970703 L 242.0332 65.970703 L 250.78125 65.970703 L 263.82227 65.970703 A 16.371483 16.371483 0 0 0 279.39062 77.289062 A 16.371483 16.371483 0 0 0 295.75977 60.919922 A 16.371483 16.371483 0 0 0 279.39062 44.544922 A 16.371483 16.371483 0 0 0 263.82227 55.869141 L 250.78125 55.869141 L 235.03125 55.869141 L 228.68164 49.519531 L 213.7793 34.619141 L 213.77734 34.621094 L 204.4707 25.314453 L 199.66992 20.513672 L 228.4043 20.513672 L 294.0293 20.513672 A 6.9370578 6.9370578 0 0 0 298.7832 22.400391 A 6.9370578 6.9370578 0 0 0 305.7207 15.462891 A 6.9370578 6.9370578 0 0 0 298.7832 8.5253906 A 6.9370578 6.9370578 0 0 0 294.03125 10.412109 L 228.4043 10.412109 L 189.57031 10.412109 L 169.20508 10.412109 L 158.01758 10.412109 L 148.70898 19.716797 L 133.80859 34.619141 L 126.35742 42.068359 L 111.45703 56.970703 L 106.87109 61.554688 L 106.87109 38.367188 L 106.87109 -28.199219 L 96.769531 -28.199219 z M 361.10938 -26.378906 L 351.80078 -17.076172 L 347 -12.275391 L 347 -16.167969 L 336.89844 -16.167969 L 336.89844 -4.1679688 L 336.89844 10.099609 L 336.89844 24.367188 L 336.89844 46.166016 L 336.89844 78.048828 L 326.67383 88.271484 L 263.15039 88.271484 L 199.625 88.271484 A 26.298563 26.298563 0 0 0 173.81641 67.023438 A 26.298563 26.298563 0 0 0 147.52148 93.322266 A 26.298563 26.298563 0 0 0 173.81641 119.61914 A 26.298563 26.298563 0 0 0 199.60938 98.373047 L 263.15039 98.373047 L 330.86133 98.373047 L 332.09766 97.136719 L 336.89844 92.335938 L 336.89844 104.30273 L 326.66211 114.55273 L 284.98242 114.55273 L 248.03906 114.55273 A 6.9370578 6.9370578 0 0 0 243.28711 112.66797 A 6.9370578 6.9370578 0 0 0 236.34961 119.60352 A 6.9370578 6.9370578 0 0 0 243.28711 126.54102 A 6.9370578 6.9370578 0 0 0 248.03906 124.6543 L 284.98242 124.6543 L 326.67383 124.6543 L 330.86133 124.6543 L 332.09766 123.41797 L 347 108.49609 L 347 46.166016 L 347 24.585938 L 351.79883 29.384766 L 358.14844 35.734375 L 358.14844 35.736328 L 358.14844 53.923828 L 358.14844 71.541016 A 6.9370578 6.9370578 0 0 0 356.26172 76.294922 A 6.9370578 6.9370578 0 0 0 363.19922 83.232422 A 6.9370578 6.9370578 0 0 0 370.13477 76.294922 A 6.9370578 6.9370578 0 0 0 368.25 71.541016 L 368.25 53.923828 L 368.25 45.839844 L 373.04688 50.636719 L 385.29297 62.882812 L 385.29297 55.416016 L 389.49805 55.416016 L 389.49805 52.802734 L 380.19336 43.494141 L 368.25 31.552734 L 367.54688 30.847656 L 365.29102 28.59375 L 358.94531 22.244141 L 347 10.298828 L 347 10.099609 L 347 2.0117188 L 358.94141 -9.9296875 L 366.92969 -17.917969 L 366.92969 -26.378906 L 361.10938 -26.378906 z M 75.519531 -22.898438 L 75.519531 39.429688 L 75.519531 61.011719 L 70.71875 56.210938 L 64.371094 49.861328 L 64.369141 49.861328 L 64.369141 32.896484 L 64.369141 14.054688 A 6.9370578 6.9370578 0 0 0 66.255859 9.3007812 A 6.9370578 6.9370578 0 0 0 59.318359 2.3652344 A 6.9370578 6.9370578 0 0 0 52.382812 9.3007812 A 6.9370578 6.9370578 0 0 0 54.267578 14.052734 L 54.267578 32.896484 L 54.267578 39.755859 L 49.470703 34.958984 L 41.917969 27.40625 A 16.371483 16.371483 0 0 0 43.658203 20.058594 A 16.371483 16.371483 0 0 0 27.285156 3.6894531 A 16.371483 16.371483 0 0 0 10.916016 20.058594 A 16.371483 16.371483 0 0 0 27.285156 36.431641 A 16.371483 16.371483 0 0 0 34.820312 34.59375 L 42.324219 42.101562 L 54.267578 54.042969 L 54.267578 54.044922 L 63.572266 63.351562 L 75.519531 75.298828 L 75.519531 97.580078 L 70.490234 102.60742 L 58.544922 114.55273 L 20.912109 114.55273 L -20.912109 114.55273 L -20.912109 124.6543 L 20.912109 124.6543 L 62.730469 124.6543 L 77.630859 109.75391 L 85.619141 101.76562 L 85.619141 93.302734 L 85.619141 39.429688 L 85.619141 -22.898438 L 75.519531 -22.898438 z M 27.460938 12.957031 A 7.1049017 7.1049017 0 0 1 34.566406 20.058594 A 7.1049017 7.1049017 0 0 1 27.460938 27.164062 A 7.1049017 7.1049017 0 0 1 20.355469 20.058594 A 7.1049017 7.1049017 0 0 1 27.460938 12.957031 z M -12.660156 28.59375 L -19.806641 35.734375 L -4.9042969 50.636719 L 2.6523438 58.195312 A 16.371483 16.371483 0 0 0 0.90625 65.537109 A 16.371483 16.371483 0 0 0 17.279297 81.908203 A 16.371483 16.371483 0 0 0 33.650391 65.537109 A 16.371483 16.371483 0 0 0 17.279297 49.164062 A 16.371483 16.371483 0 0 0 9.7519531 51.009766 L 2.2402344 43.494141 L -12.660156 28.59375 z M 279.21484 53.814453 A 7.1049017 7.1049017 0 0 1 286.32031 60.919922 A 7.1049017 7.1049017 0 0 1 279.21484 68.021484 A 7.1049017 7.1049017 0 0 1 272.10938 60.919922 A 7.1049017 7.1049017 0 0 1 279.21484 53.814453 z M 17.103516 58.431641 A 7.1049017 7.1049017 0 0 1 24.208984 65.537109 A 7.1049017 7.1049017 0 0 1 17.103516 72.638672 A 7.1049017 7.1049017 0 0 1 9.9980469 65.537109 A 7.1049017 7.1049017 0 0 1 17.103516 58.431641 z M 173.81641 77.125 A 16.197284 16.197284 0 0 1 190.01367 93.322266 A 16.197284 16.197284 0 0 1 173.81641 109.51953 A 16.197284 16.197284 0 0 1 157.62305 93.322266 A 16.197284 16.197284 0 0 1 173.81641 77.125 z M 363.69922 114.55273 L 348.79688 129.45508 L 339.93945 138.3125 A 6.9370578 6.9370578 0 0 0 333.26758 145.24023 A 6.9370578 6.9370578 0 0 0 340.20508 152.17773 A 6.9370578 6.9370578 0 0 0 347.13477 145.40039 L 355.93945 136.60156 L 367.88477 124.6543 L 379.82812 124.6543 L 395.95898 124.6543 L 395.95898 114.55273 L 379.82812 114.55273 L 363.69922 114.55273 z M 135.90234 123.48438 A 6.9370578 6.9370578 0 0 0 131.14844 125.37109 L 121.58008 125.37109 L 107.25977 125.37109 L 107.25781 125.36914 L 107.25586 125.37109 L 92.355469 140.27148 L 86.007812 146.61914 L 70.257812 146.61914 L 57.216797 146.61914 A 16.371483 16.371483 0 0 0 41.648438 135.29883 A 16.371483 16.371483 0 0 0 26.087891 146.61719 L 21.03125 146.61719 L 15.689453 146.61719 A 6.9370578 6.9370578 0 0 0 10.933594 144.73047 A 6.9370578 6.9370578 0 0 0 3.9980469 151.66797 A 6.9370578 6.9370578 0 0 0 10.933594 158.60547 A 6.9370578 6.9370578 0 0 0 15.685547 156.71875 L 21.03125 156.71875 L 26.083984 156.71875 A 16.371483 16.371483 0 0 0 41.648438 168.04297 A 16.371483 16.371483 0 0 0 57.224609 156.7207 L 70.257812 156.7207 L 90.191406 156.7207 L 90.191406 156.71875 L 99.498047 147.41602 L 111.44141 135.47266 L 121.58008 135.47266 L 131.14844 135.47266 A 6.9370578 6.9370578 0 0 0 135.90234 137.35938 A 6.9370578 6.9370578 0 0 0 142.83789 130.42188 A 6.9370578 6.9370578 0 0 0 135.90234 123.48438 z M 272.67383 134.6543 A 6.9370578 6.9370578 0 0 0 265.73633 141.5918 A 6.9370578 6.9370578 0 0 0 272.67383 148.5293 A 6.9370578 6.9370578 0 0 0 277.42773 146.64258 L 283.68359 146.64258 L 290.68555 146.64258 L 297.03516 152.99219 L 301.83398 157.79102 L 252.3418 157.79102 L 140.63086 157.79102 L 125.72852 172.69336 L 119.38086 179.04102 L 38.945312 179.04102 L -45.677734 179.04102 L -45.677734 189.14258 L 38.945312 189.14258 L 123.5625 189.14258 L 132.87109 179.83789 L 144.81641 167.89258 L 252.3418 167.89258 L 316.02148 167.89258 L 311.2207 172.69336 L 304.87305 179.04102 L 234.5332 179.04102 L 161.58789 179.04102 A 6.9370578 6.9370578 0 0 0 156.83398 177.15625 A 6.9370578 6.9370578 0 0 0 149.89844 184.0918 A 6.9370578 6.9370578 0 0 0 156.83398 191.0293 A 6.9370578 6.9370578 0 0 0 161.58789 189.14258 L 234.5332 189.14258 L 247.23438 189.14258 C 245.11255 191.26441 243.5763 192.80061 242.43555 193.94141 C 239.21119 197.16576 236.08398 200.29297 236.08398 200.29297 L 151.25 200.29297 L 68.457031 200.29297 A 6.9370578 6.9370578 0 0 0 63.792969 198.49023 A 6.9370578 6.9370578 0 0 0 56.855469 205.42773 A 6.9370578 6.9370578 0 0 0 63.792969 212.36523 A 6.9370578 6.9370578 0 0 0 68.632812 210.39258 L 151.25 210.39258 L 229.08203 210.39258 L 240.26758 210.39258 L 249.57617 201.08789 L 261.52344 189.14258 L 309.05273 189.14258 L 318.36133 179.83789 L 330.30859 167.89258 L 359.29102 167.89258 A 6.9370578 6.9370578 0 0 0 364.04492 169.7793 A 6.9370578 6.9370578 0 0 0 370.98242 162.8418 A 6.9370578 6.9370578 0 0 0 364.04492 155.9043 A 6.9370578 6.9370578 0 0 0 359.29297 157.79102 L 316.12305 157.79102 L 304.17773 145.8457 L 294.86914 136.54102 L 283.68359 136.54102 L 277.42773 136.54102 A 6.9370578 6.9370578 0 0 0 272.67383 134.6543 z M 41.826172 144.56836 A 7.1049017 7.1049017 0 0 1 48.931641 151.66992 A 7.1049017 7.1049017 0 0 1 41.826172 158.77539 A 7.1049017 7.1049017 0 0 1 34.720703 151.66992 A 7.1049017 7.1049017 0 0 1 41.826172 144.56836 z M 341.16797 179.04102 L 341.16797 179.04297 C 341.16499 179.04595 329.80917 190.39969 326.26758 193.94141 L 319.91602 200.29297 L 298.4668 200.29297 L 285.51367 200.29297 L 284.17969 200.29297 L 281.0957 203.37695 A 16.371483 16.371483 0 0 0 273.75195 201.62891 A 16.371483 16.371483 0 0 0 257.37891 217.99805 A 16.371483 16.371483 0 0 0 273.75195 234.37109 A 16.371483 16.371483 0 0 0 290.12109 217.99805 A 16.371483 16.371483 0 0 0 288.2793 210.48047 L 288.36719 210.39258 L 312.91602 210.39258 L 324.10156 210.39258 L 333.41016 201.08789 L 345.35547 189.14258 L 367.625 189.14258 L 394.08203 189.14258 L 394.08203 179.04102 L 367.625 179.04102 L 341.16797 179.04102 z M 35.390625 198.4082 A 6.9370578 6.9370578 0 0 0 30.636719 200.29492 L 30.339844 200.29492 L 25.292969 200.29492 L 25.291016 200.29297 L 25.289062 200.29492 L 10.388672 215.19336 L 4.0390625 221.54297 L 2.6289062 221.54297 L -2.9628906 221.54297 L -2.9628906 228.54688 L -4.5117188 230.0957 L -2.9628906 231.64453 L 2.6289062 231.64453 L 8.2226562 231.64453 L 17.53125 222.33984 L 29.474609 210.39648 L 30.339844 210.39648 L 30.638672 210.39648 A 6.9370578 6.9370578 0 0 0 35.390625 212.28125 A 6.9370578 6.9370578 0 0 0 42.328125 205.3457 A 6.9370578 6.9370578 0 0 0 35.390625 198.4082 z M 273.57617 210.89648 A 7.1049017 7.1049017 0 0 1 280.68164 217.99805 A 7.1049017 7.1049017 0 0 1 273.57617 225.10352 A 7.1049017 7.1049017 0 0 1 266.4707 217.99805 A 7.1049017 7.1049017 0 0 1 273.57617 210.89648 z M 205.74414 219.65625 A 6.9370578 6.9370578 0 0 0 198.80664 226.59375 A 6.9370578 6.9370578 0 0 0 205.74414 233.53125 A 6.9370578 6.9370578 0 0 0 210.49609 231.64453 L 215.84375 231.64453 L 221.75781 231.64453 L 233.70508 243.58984 L 243.01367 252.89453 L 254.19922 252.89453 L 332.58008 252.89453 L 422.15625 252.89453 L 422.15625 242.79297 L 332.58008 242.79297 L 313.43164 242.79297 L 318.23242 237.99219 L 324.58008 231.64453 L 358.76758 231.64453 L 397.13867 231.64453 L 397.13867 221.54297 L 358.76758 221.54297 L 320.40039 221.54297 L 311.0918 230.84766 L 299.14453 242.79297 L 247.19336 242.79297 L 240.8457 236.44531 L 225.94531 221.54297 L 215.84375 221.54297 L 210.49805 221.54297 A 6.9370578 6.9370578 0 0 0 205.74414 219.65625 z M 161.2793 221.44922 A 16.371483 16.371483 0 0 0 144.90625 237.81836 A 16.371483 16.371483 0 0 0 147.76953 247.07031 L 140.60938 254.22852 L 128.66406 266.17383 L 101.00195 266.17383 L 80.34375 266.17383 L 69.158203 266.17383 L 59.849609 275.47852 L 47.90625 287.42383 L 21.230469 287.42383 L 10.042969 287.42383 L 0.73632812 296.72852 L -14.166016 311.63086 L -7.0234375 318.77539 L 7.8769531 303.875 L 14.226562 297.52539 L 29.158203 297.52539 L 41.105469 309.47266 L 47.455078 315.81836 L 47.453125 315.82031 L 62.355469 330.72266 L 71.664062 340.02539 L 94.035156 340.02539 L 112.22266 340.02539 L 124.16992 351.97266 L 133.47656 361.27734 L 144.66406 361.27734 L 220.18555 361.27734 L 298.53906 361.27734 A 16.371483 16.371483 0 0 0 314.10742 372.59961 A 16.371483 16.371483 0 0 0 330.47656 356.22656 A 16.371483 16.371483 0 0 0 314.10742 339.85547 A 16.371483 16.371483 0 0 0 298.53906 351.17578 L 220.18555 351.17578 L 174.01172 351.17578 L 178.8125 346.375 L 185.16211 340.02539 L 226.45312 340.02539 L 267.17773 340.02539 A 6.9370578 6.9370578 0 0 0 271.93164 341.91211 A 6.9370578 6.9370578 0 0 0 278.86914 334.97656 A 6.9370578 6.9370578 0 0 0 271.93164 328.03906 A 6.9370578 6.9370578 0 0 0 267.17773 329.92578 L 226.45312 329.92578 L 192.16406 329.92578 L 180.97852 329.92578 L 171.66992 339.22852 L 159.72266 351.17578 L 137.66016 351.17578 L 131.31055 344.82617 L 116.41016 329.92578 L 94.035156 329.92578 L 75.845703 329.92578 L 69.496094 323.57617 L 64.695312 318.77539 L 95.59375 318.77539 L 136.91406 318.77539 A 6.9370578 6.9370578 0 0 0 141.66797 320.66211 A 6.9370578 6.9370578 0 0 0 148.60547 313.72461 A 6.9370578 6.9370578 0 0 0 141.66797 306.78906 A 6.9370578 6.9370578 0 0 0 136.91602 308.67383 L 95.59375 308.67383 L 54.59375 308.67383 L 48.246094 302.32617 L 43.445312 297.52539 L 116.20508 297.52539 L 218.77539 297.52539 A 26.298563 26.298563 0 0 0 244.56836 318.77539 A 26.298563 26.298563 0 0 0 270.86328 292.47461 A 26.298563 26.298563 0 0 0 244.56836 266.17969 A 26.298563 26.298563 0 0 0 218.77734 287.42383 L 116.20508 287.42383 L 62.193359 287.42383 L 66.992188 282.625 L 73.341797 276.27539 L 101.00195 276.27539 L 132.84961 276.27539 L 147.75195 261.375 L 155.86719 253.25977 A 16.371483 16.371483 0 0 0 161.2793 254.19141 A 16.371483 16.371483 0 0 0 177.64844 237.81836 A 16.371483 16.371483 0 0 0 161.2793 221.44922 z M 161.10352 230.7168 A 7.1049017 7.1049017 0 0 1 168.20898 237.81836 A 7.1049017 7.1049017 0 0 1 161.10352 244.92383 A 7.1049017 7.1049017 0 0 1 153.99805 237.81836 A 7.1049017 7.1049017 0 0 1 161.10352 230.7168 z M 109.38672 240.90625 A 6.9370578 6.9370578 0 0 0 104.63281 242.79297 L 36.460938 242.79297 L -36.460938 242.79297 L -36.460938 252.89453 L 36.460938 252.89453 L 104.63281 252.89453 A 6.9370578 6.9370578 0 0 0 109.38672 254.78125 A 6.9370578 6.9370578 0 0 0 116.32422 247.84375 A 6.9370578 6.9370578 0 0 0 109.38672 240.90625 z M 244.56836 276.27734 A 16.197284 16.197284 0 0 1 260.76172 292.47461 A 16.197284 16.197284 0 0 1 244.56836 308.67188 A 16.197284 16.197284 0 0 1 228.37109 292.47461 A 16.197284 16.197284 0 0 1 244.56836 276.27734 z M 387.99609 287.42383 L 378.6875 296.72852 L 366.74219 308.67578 L 339.83984 308.67578 L 317.03516 308.67578 A 16.371483 16.371483 0 0 0 301.4668 297.35547 A 16.371483 16.371483 0 0 0 285.09766 313.72461 A 16.371483 16.371483 0 0 0 301.4668 330.09961 A 16.371483 16.371483 0 0 0 317.04297 318.77539 L 339.83984 318.77539 L 370.92773 318.77539 L 385.83008 303.875 L 400.73047 288.97266 L 399.18359 287.42383 L 387.99609 287.42383 z M 301.64258 306.62305 A 7.1049017 7.1049017 0 0 1 308.74805 313.72461 A 7.1049017 7.1049017 0 0 1 301.64258 320.83008 A 7.1049017 7.1049017 0 0 1 294.53711 313.72461 A 7.1049017 7.1049017 0 0 1 301.64258 306.62305 z M 32.75 339.86914 A 16.371483 16.371483 0 0 0 16.378906 356.23828 A 16.371483 16.371483 0 0 0 32.75 372.61328 A 16.371483 16.371483 0 0 0 48.324219 361.28906 L 55.195312 361.28906 L 65.294922 361.28906 L 75.519531 371.51172 L 75.519531 377.42578 L 75.519531 387.52734 L 85.619141 387.52734 L 85.619141 377.42578 L 85.619141 367.32617 L 70.71875 352.42383 L 69.482422 351.18945 L 55.195312 351.18945 L 48.318359 351.18945 A 16.371483 16.371483 0 0 0 32.75 339.86914 z M 313.93164 349.125 A 7.1049017 7.1049017 0 0 1 321.03711 356.22656 A 7.1049017 7.1049017 0 0 1 313.93164 363.33203 A 7.1049017 7.1049017 0 0 1 306.82617 356.22656 A 7.1049017 7.1049017 0 0 1 313.93164 349.125 z M 32.925781 349.13672 A 7.1049017 7.1049017 0 0 1 40.03125 356.23828 A 7.1049017 7.1049017 0 0 1 32.925781 363.3457 A 7.1049017 7.1049017 0 0 1 25.820312 356.23828 A 7.1049017 7.1049017 0 0 1 32.925781 349.13672 z M 363.48438 349.28906 A 6.9370578 6.9370578 0 0 0 356.55078 356.12891 L 351.80078 360.87695 L 336.89844 375.7793 L 336.89844 385.88086 L 336.89844 395.98047 L 347 395.98047 L 347 385.88086 L 347 379.96484 L 358.94141 368.02344 L 363.81445 363.15039 A 6.9370578 6.9370578 0 0 0 370.41992 356.22656 A 6.9370578 6.9370578 0 0 0 363.48438 349.28906 z M 101.82031 357.12305 A 6.9370578 6.9370578 0 0 0 94.884766 364.06055 A 6.9370578 6.9370578 0 0 0 96.769531 368.8125 L 96.769531 377.95312 L 96.769531 391.8457 L 106.87109 391.8457 L 106.87109 377.95312 L 106.87109 368.81445 A 6.9370578 6.9370578 0 0 0 108.75781 364.06055 A 6.9370578 6.9370578 0 0 0 101.82031 357.12305 z "
       transform="scale(0.26458333)" />
    <path
       id="rect1210-09-7-1-7-9"
       style="fill:#250539;fill-opacity:1;stroke:none;stroke-width:0.11865"
       d="m -87.343686,108.18017 v 2.67241 2.67263 h 2.67263 v -2.67263 -2.67241 z" />
    <path
       d="m -109.83107,180.82251 v 2.67241 2.67263 h 2.67265 v -2.67263 -2.67241 z"
       style="fill:#250539;fill-opacity:1;stroke:none;stroke-width:0.11865"
       id="rect1210-09-7-1-5" />
    <path
       id="rect1210-09-7-1-7-7"
       style="fill:#250539;fill-opacity:1;stroke:none;stroke-width:0.11865"
       d="m -132.31843,180.82251 v 2.67241 2.67263 h 2.67263 v -2.67263 -2.67241 z" />
    <path
       id="rect1210-09-7-1-0-2"
       style="fill:#250539;fill-opacity:1;stroke:none;stroke-width:0.11865"
       d="m -121.07474,180.82251 v 2.67241 2.67263 h 2.67264 v -2.67263 -2.67241 z" />
    <path
       d="m -98.587379,180.82251 v 6.1809 6.18141 h 2.672631 v -6.18141 -6.1809 z"
       style="fill:#250539;fill-opacity:1;stroke:none;stroke-width:0.180443"
       id="rect1210-09-7-1-0-8-5" />
    <path
       d="m -87.343686,180.82251 v 2.67241 2.67263 h 2.67263 v -2.67263 -2.67241 z"
       style="fill:#250539;fill-opacity:1;stroke:none;stroke-width:0.11865"
       id="rect1210-09-7-1-7-9-9" />
    <path
       d="m -142.14341,145.83754 h -32.78435 -32.78721 v 2.67263 h 32.78721 32.78435 z"
       style="fill:#250539;fill-opacity:1;stroke:none;stroke-width:0.415576"
       id="rect1210-09-7-1-5-4-9" />
    <path
       d="m -158.41605,183.49492 h -32.78437 -32.78721 v 2.67263 h 32.78721 32.78437 z"
       style="fill:#250539;fill-opacity:1;stroke:none;stroke-width:0.415576"
       id="rect1210-09-7-1-5-4-9-2" />
    <path
       d="m -157.81035,151.46 h -22.38796 -22.38991 v 2.67263 h 22.38991 22.38796 z"
       style="fill:#250539;fill-opacity:1;stroke:none;stroke-width:0.343416"
       id="rect1210-09-7-1-5-4-9-3-0" />
    <path
       d="m -212.23088,151.46 h -22.38796 -22.38991 v 2.67263 h 22.38991 22.38796 z"
       style="fill:#250539;fill-opacity:1;stroke:none;stroke-width:0.343416"
       id="rect1210-09-7-1-5-4-9-3-0-6" />
    <path
       id="rect1210-09-7-1-5-4-9-3-0-5"
       style="fill:#250539;fill-opacity:1;stroke:none;stroke-width:0.352242"
       d="m -176.83641,151.45977 c 0,0 -3.00549,3.00548 -3.94266,3.94268 -0.85311,0.85311 -1.68046,1.68044 -1.68046,1.68044 h -22.44577 -23.5551 v 2.67198 h 23.5551 20.59334 2.95965 l 2.46283,-2.46179 3.94265,-3.94265 z"
       sodipodi:nodetypes="cscccccccccc" />
    <path
       d="m -142.14341,157.08123 h -5.57526 -5.57577 v 2.67263 h 5.57577 5.57526 z"
       style="fill:#250539;fill-opacity:1;stroke:none;stroke-width:0.171376"
       id="rect1210-09-7-1-5-4-9-6" />
    <path
       id="rect1210-09-7-1-5-4-9-6-5"
       style="fill:#250539;fill-opacity:1;stroke:none;stroke-width:0.171376"
       d="m -153.29405,157.08078 -3.94265,3.94265 -3.94265,3.94266 0.40976,0.40978 h 2.95965 l 2.46283,-2.46178 3.94265,-3.94266 z" />
    <path
       id="rect1210-09-7-1-5-4-9-6-5-74"
       style="fill:#250539;fill-opacity:1;stroke:none;stroke-width:0.171376"
       d="m -131.53539,184.2769 -3.94265,3.94265 -3.94266,3.94268 0.40974,0.40976 h 2.95966 l 2.46285,-2.46178 3.94265,-3.94266 z" />
    <path
       id="rect1210-09-7-1-5-4-9-6-5-74-81"
       style="fill:#250539;fill-opacity:1;stroke:none;stroke-width:0.171376"
       d="m -96.69779,98.475593 3.942655,-3.942676 3.942654,-3.942654 -0.409742,-0.409763 h -2.959651 l -2.46285,2.461781 -3.942655,3.942655 z" />
    <path
       id="rect1210-09-7-1-5-4-9-6-5-74-81-7"
       style="fill:#250539;fill-opacity:1;stroke:none;stroke-width:0.171376"
       d="m -85.454098,110.07083 3.942655,-3.94268 3.942655,-3.94265 -0.409742,-0.40976 h -2.959652 l -2.462849,2.46178 -3.942655,3.94265 z" />
    <path
       id="rect1210-09-7-1-5-4-9-6-5-74-81-7-2"
       style="fill:#250539;fill-opacity:1;stroke:none;stroke-width:0.171376"
       d="m -86.017375,96.313569 -1.372614,1.371545 -3.942655,3.942676 1.889588,1.89064 3.942655,-3.942659 1.675165,-1.675144 h -2.192139 z" />
    <path
       id="rect1210-09-7-1-5-4-9-6-5-74-81-7-3"
       style="fill:#250539;fill-opacity:1;stroke:none;stroke-width:0.171376"
       d="m -69.813451,104.44837 3.942655,-3.94268 3.942654,-3.942652 -0.409742,-0.409763 h -2.959651 l -2.46285,2.461781 -3.942655,3.942654 z" />
    <path
       id="rect1210-09-7-1-5-4-9-6-5-74-81-7-3-4"
       style="fill:#250539;fill-opacity:1;stroke:none;stroke-width:0.171376"
       d="m -48.445719,98.825905 3.942655,-3.942675 3.942655,-3.942655 -0.409743,-0.409763 h -2.959651 l -2.46285,2.461782 -3.942654,3.942655 z" />
    <path
       id="rect1210-09-7-1-5-4-9-6-5-74-1"
       style="fill:#250539;fill-opacity:1;stroke:none;stroke-width:0.171376"
       d="m -120.29204,184.27708 -3.94266,3.94266 -2.11358,2.11358 v 2.23883 h 1.54034 l 2.46283,-2.46178 3.94266,-3.94265 z" />
    <path
       id="rect1210-09-7-1-5-4-9-6-5-74-0"
       style="fill:#250539;fill-opacity:1;stroke:none;stroke-width:0.171376"
       d="m -109.04801,184.2769 -3.94265,3.94265 -3.94267,3.94268 0.40976,0.40976 h 2.95964 l 2.46283,-2.46178 3.94268,-3.94266 z" />
    <path
       id="rect1210-09-7-1-5-4-9-6-5-74-0-4"
       style="fill:#250539;fill-opacity:1;stroke:none;stroke-width:0.171376"
       d="m -115.4535,190.68133 -3.94266,3.94266 -3.94268,3.94265 0.40977,0.40979 h 2.95965 l 2.46283,-2.46179 3.94266,-3.94265 z" />
    <path
       id="rect1210-09-7-1-5-4-9-6-5-7"
       style="fill:#250539;fill-opacity:1;stroke:none;stroke-width:0.171376"
       d="m -153.29444,145.83754 -3.94265,3.94267 -3.94266,3.94266 0.40977,0.40976 h 2.95963 l 2.46285,-2.46178 3.94265,-3.94266 z" />
    <path
       id="rect1210-09-7-1-5-4-9-6-5-7-00"
       style="fill:#250539;fill-opacity:1;stroke:none;stroke-width:0.171376"
       d="m -107.15842,105.41492 -3.94266,-3.94266 -3.94264,-3.942653 -0.40976,0.409763 v 2.95965 l 2.46175,2.46283 3.94265,3.94265 z" />
    <path
       id="rect1210-09-7-1-5-4-9-6-5-7-00-1"
       style="fill:#250539;fill-opacity:1;stroke:none;stroke-width:0.171376"
       d="m -119.96295,92.60968 v 1.97558 h -1.11253 v 0.691073 l 2.46178,2.462829 3.94265,3.942678 1.89066,-1.889591 -3.94267,-3.942655 z" />
    <path
       d="m -174.92248,140.21631 h -22.38798 -22.38991 v 2.67263 h 22.38991 22.38798 z"
       style="fill:#250539;fill-opacity:1;stroke:none;stroke-width:0.343416"
       id="rect1210-09-7-1-5-4-9-3-0-35" />
    <path
       id="rect1210-09-7-1-5-4-9-6-5-7-9"
       style="fill:#250539;fill-opacity:1;stroke:none;stroke-width:0.171376"
       d="m -170.40659,134.59386 -3.94265,3.94266 -3.94266,3.94265 0.40977,0.40977 h 2.95965 l 2.46283,-2.46178 3.94265,-3.94266 z" />
    <path
       id="rect1210-09-7-1-5-4-9-6-5-7-45"
       style="fill:#250539;fill-opacity:1;stroke:none;stroke-width:0.171376"
       d="m -175.6878,174.73782 -0.34076,0.34076 -3.94265,3.94268 0.40976,0.40976 h 2.95965 l 2.46283,-2.46178 1.48301,-1.48301 h -3.03184 z" />
    <path
       id="rect1210-09-7-1-5-4-9-6-5-7-4"
       style="fill:#250539;fill-opacity:1;stroke:none;stroke-width:0.171376"
       d="m -153.90013,191.79002 -3.94268,-3.94268 -3.94265,-3.94265 0.40976,-0.40977 h 2.95965 l 2.46283,2.46178 3.94265,3.94266 z" />
    <path
       id="rect1210-09-7-1-5-4-9-6-5-7-4-4"
       style="fill:#250539;fill-opacity:1;stroke:none;stroke-width:0.171376"
       d="m -148.10248,148.51017 -3.94268,-3.94266 -3.94265,-3.94265 0.40976,-0.40977 h 2.95965 l 2.46283,2.46177 3.94265,3.94265 z" />
    <path
       id="rect1210-09-7-1-5-4-9-6-5-7-4-4-4"
       style="fill:#250539;fill-opacity:1;stroke:none;stroke-width:0.171376"
       d="m -154.52333,117.72742 v 2.38109 l 1.97132,1.97135 3.94266,3.94265 1.88959,-1.89066 -3.94266,-3.94265 -2.46283,-2.46178 z" />
    <path
       id="rect1210-09-7-1-5-4-9-6-5-7-4-4-4-0"
       style="fill:#250539;fill-opacity:1;stroke:none;stroke-width:0.171376"
       d="m -159.90124,110.4939 2.21762,2.21762 3.94265,3.94265 1.88961,-1.89066 -3.94268,-3.94265 -0.32695,-0.32696 z" />
    <path
       id="rect1210-09-7-1-7-7-5-1-0-1"
       style="fill:#250539;fill-opacity:1;stroke:none;stroke-width:0.284847"
       d="m -157.22894,103.53541 h -15.40251 -15.40385 v 2.67263 h 15.40385 15.40251 z" />
    <path
       id="rect1210-09-7-1-7-7-5-1-0-1-2"
       style="fill:#250539;fill-opacity:1;stroke:none;stroke-width:0.141116"
       d="m -133.91543,103.91054 h -3.78022 -3.78058 v 2.67263 h 3.78058 3.78022 z" />
    <path
       id="rect1210-09-7-1-5-4-9-6-5-7-4-4-4-0-2"
       style="fill:#250539;fill-opacity:1;stroke:none;stroke-width:0.171494"
       d="m -159.90103,103.53541 2.21761,2.22068 3.94266,3.9481 1.8896,-1.89327 -3.94267,-3.9481 -0.32696,-0.32741 z" />
    <path
       id="rect1210-09-7-1-5-4-9-6-5-7-4-4-4-0-0"
       style="fill:#250539;fill-opacity:1;stroke:none;stroke-width:0.171376"
       d="m -137.69565,103.91054 2.21761,2.21761 3.94265,3.94266 1.88959,-1.89064 -3.94265,-3.94267 -0.32698,-0.32696 z" />
    <path
       id="rect1210-09-7-1-5-4-9-6-5-7-4-4-4-0-0-58"
       style="fill:#250539;fill-opacity:1;stroke:none;stroke-width:0.171376"
       d="m -126.45196,103.91054 2.21761,2.21761 3.94265,3.94266 1.8896,-1.89064 -3.94266,-3.94267 -0.32696,-0.32696 z" />
    <path
       id="rect1210-09-7-1-5-4-9-6-5-7-4-9"
       style="fill:#250539;fill-opacity:1;stroke:none;stroke-width:0.171376"
       d="m -226.9859,179.38961 v 2.63058 h -1.14968 l 0.20481,0.20481 3.94265,3.94266 1.88959,-1.89066 -3.94265,-3.94266 z" />
    <path
       id="rect1210-09-7-1-5-4-9-6-5-7-4-6"
       style="fill:#250539;fill-opacity:1;stroke:none;stroke-width:0.171376"
       d="m -179.56145,171.13593 -0.40976,0.40976 3.94265,3.94265 0.9448,0.9448 v -0.94691 h 2.83331 l -1.88852,-1.88852 -2.46283,-2.46178 z" />
    <path
       id="rect1210-09-7-1-5-4-9-6-5-7-1"
       style="fill:#250539;fill-opacity:1;stroke:none;stroke-width:0.171376"
       d="m -207.71497,145.83754 -3.94267,3.94267 -3.94266,3.94266 0.40977,0.40976 h 2.95965 l 2.46283,-2.46178 3.94267,-3.94266 z" />
    <path
       d="m -157.80924,162.70308 h -5.27427 -5.27474 v 2.67263 h 5.27474 5.27427 z"
       style="fill:#250539;fill-opacity:1;stroke:none;stroke-width:0.166685"
       id="rect1210-09-7-1-5-4-9-3-0-2" />
    <path
       d="m -142.14341,168.32492 h -5.57526 -5.57577 v 2.67263 h 5.57577 5.57526 z"
       style="fill:#250539;fill-opacity:1;stroke:none;stroke-width:0.171376"
       id="rect1210-09-7-1-5-4-9-6-4" />
    <path
       id="rect1210-09-7-1-5-4-9-6-5-8"
       style="fill:#250539;fill-opacity:1;stroke:none;stroke-width:0.171376"
       d="m -153.29405,168.32447 -3.94265,3.94267 -3.94265,3.94266 0.40976,0.40976 h 2.95965 l 2.46283,-2.46178 3.94265,-3.94265 z" />
    <path
       d="m -157.80924,173.94677 h -8.63701 -8.63776 v 2.67263 h 8.63776 8.63701 z"
       style="fill:#250539;fill-opacity:1;stroke:none;stroke-width:0.213304"
       id="rect1210-09-7-1-5-4-9-3-0-2-2" />
    <path
       d="m -173.43678,162.70244 h -30.71957 -30.72221 v 2.67263 h 30.72221 30.71957 z"
       style="fill:#250539;fill-opacity:1;stroke:none;stroke-width:0.402275"
       id="rect1210-09-7-1-5-4-9-3-0-2-0" />
    <path
       d="m -119.96942,196.3038 h -30.71956 -30.72221 v 2.67263 h 30.72221 30.71956 z"
       style="fill:#250539;fill-opacity:1;stroke:none;stroke-width:0.402275"
       id="rect1210-09-7-1-5-4-9-3-0-2-0-2" />
    <path
       d="M -30.731361,196.30377 H -58.252684 -85.77637 v 2.67264 h 27.523686 27.521323 z"
       style="fill:#250539;fill-opacity:1;stroke:none;stroke-width:0.380759"
       id="rect1210-09-7-1-5-4-9-3-0-2-0-2-6" />
    <path
       d="m -43.693954,189.89936 h -18.621312 -18.622916 v 2.67263 h 18.622916 18.621312 z"
       style="fill:#250539;fill-opacity:1;stroke:none;stroke-width:0.313198"
       id="rect1210-09-7-1-5-4-9-3-0-2-0-2-6-1" />
    <path
       id="rect1210-09-7-1-0-2-2-0"
       style="fill:#250539;fill-opacity:1;stroke:none;stroke-width:0.427253"
       d="m -142.14341,134.59386 h -34.65299 -34.656 v 2.67264 h 34.656 34.65299 z" />
    <path
       id="rect1210-09-7-1-0-2-2-0-19"
       style="fill:#250539;fill-opacity:1;stroke:none;stroke-width:0.124863"
       d="m -152.6184,140.21509 h -2.95965 -2.9599 v 2.67263 h 2.9599 2.95965 z" />
    <path
       id="rect1210-09-7-1-0-2-2-0-7"
       style="fill:#250539;fill-opacity:1;stroke:none;stroke-width:0.410048"
       d="m -136.0513,189.89936 h -31.91851 -31.92129 v 2.67263 h 31.92129 31.91851 z" />
    <path
       id="rect1210-09-7-1-0-2-2-0-9"
       style="fill:#250539;fill-opacity:1;stroke:none;stroke-width:0.310856"
       d="m -169.63626,123.35017 h -18.34364 -18.34522 v 2.67263 h 18.34522 18.34364 z" />
    <path
       id="path11628"
       style="fill:#250539;fill-opacity:1;stroke-width:0.546533"
       d="m -164.26473,117.72896 a 6.9581615,6.9581615 0 0 0 -6.95752,6.95752 6.9581615,6.9581615 0 0 0 6.95752,6.95858 6.9581615,6.9581615 0 0 0 6.95858,-6.95858 6.9581615,6.9581615 0 0 0 -6.95858,-6.95752 z m 0,2.67197 a 4.2855314,4.2855314 0 0 1 4.28553,4.28555 4.2855314,4.2855314 0 0 1 -4.28553,4.28554 4.2855314,4.2855314 0 0 1 -4.28448,-4.28554 4.2855314,4.2855314 0 0 1 4.28448,-4.28555 z" />
    <path
       id="path11628-7"
       style="fill:#250539;fill-opacity:1;stroke-width:0.546533"
       d="m -197.67234,104.87239 a 6.9581615,6.9581615 0 0 0 -6.95752,6.9575 6.9581615,6.9581615 0 0 0 6.95752,6.95857 6.9581615,6.9581615 0 0 0 6.95857,-6.95857 6.9581615,6.9581615 0 0 0 -6.95857,-6.9575 z m 0,2.67195 a 4.2855314,4.2855314 0 0 1 4.28553,4.28555 4.2855314,4.2855314 0 0 1 -4.28553,4.28555 4.2855314,4.2855314 0 0 1 -4.28448,-4.28555 4.2855314,4.2855314 0 0 1 4.28448,-4.28555 z" />
    <path
       id="path11628-7-97"
       style="fill:#250539;fill-opacity:1;stroke-width:0.546533"
       d="m -157.68188,85.480481 a 6.9581615,6.9581615 0 0 0 -6.95752,6.957504 6.9581615,6.9581615 0 0 0 6.95752,6.958573 6.9581615,6.9581615 0 0 0 6.95855,-6.958573 6.9581615,6.9581615 0 0 0 -6.95855,-6.957504 z m 0,2.671953 a 4.2855314,4.2855314 0 0 1 4.28553,4.285551 4.2855314,4.2855314 0 0 1 -4.28553,4.285552 4.2855314,4.2855314 0 0 1 -4.2845,-4.285552 4.2855314,4.2855314 0 0 1 4.2845,-4.285551 z" />
    <path
       id="path11628-7-8"
       style="fill:#250539;fill-opacity:1;stroke-width:0.546533"
       d="m -240.75008,157.08125 a 6.9581615,6.9581615 0 0 0 -6.95751,6.9575 6.9581615,6.9581615 0 0 0 6.95751,6.95858 6.9581615,6.9581615 0 0 0 6.95857,-6.95858 6.9581615,6.9581615 0 0 0 -6.95857,-6.9575 z m 0,2.67195 a 4.2855314,4.2855314 0 0 1 4.28555,4.28555 4.2855314,4.2855314 0 0 1 -4.28555,4.28556 4.2855314,4.2855314 0 0 1 -4.28448,-4.28556 4.2855314,4.2855314 0 0 1 4.28448,-4.28555 z" />
    <path
       id="path11628-7-8-4"
       style="fill:#250539;fill-opacity:1;stroke-width:0.546533"
       d="m -246.09571,123.35142 a 6.9581615,6.9581615 0 0 0 -6.95753,6.95751 6.9581615,6.9581615 0 0 0 6.95753,6.95857 6.9581615,6.9581615 0 0 0 6.95857,-6.95857 6.9581615,6.9581615 0 0 0 -6.95857,-6.95751 z m 0,2.67195 a 4.2855314,4.2855314 0 0 1 4.28553,4.28556 4.2855314,4.2855314 0 0 1 -4.28553,4.28555 4.2855314,4.2855314 0 0 1 -4.28449,-4.28555 4.2855314,4.2855314 0 0 1 4.28449,-4.28556 z" />
    <path
       id="path11067"
       style="fill:#250539;fill-opacity:1;stroke-width:0.537735"
       d="m -170.65279,159.70809 a 4.3316216,4.3316216 0 0 0 -4.3312,4.3312 4.3316216,4.3316216 0 0 0 4.3312,4.33224 4.3316216,4.3316216 0 0 0 4.33224,-4.33224 4.3316216,4.3316216 0 0 0 -4.33224,-4.3312 z m 0.0466,2.45223 a 1.8798386,1.8798386 0 0 1 1.88004,1.87897 1.8798386,1.8798386 0 0 1 -1.88004,1.88003 1.8798386,1.8798386 0 0 1 -1.88004,-1.88003 1.8798386,1.8798386 0 0 1 1.88004,-1.87897 z" />
    <path
       id="path11067-2"
       style="fill:#250539;fill-opacity:1;stroke-width:0.537735"
       d="m -229.19887,174.77215 a 4.3316216,4.3316216 0 0 0 -4.33119,4.3312 4.3316216,4.3316216 0 0 0 4.33119,4.33224 4.3316216,4.3316216 0 0 0 4.33227,-4.33224 4.3316216,4.3316216 0 0 0 -4.33227,-4.3312 z m 0.0466,2.45223 a 1.8798386,1.8798386 0 0 1 1.88003,1.87897 1.8798386,1.8798386 0 0 1 -1.88003,1.88003 1.8798386,1.8798386 0 0 1 -1.88004,-1.88003 1.8798386,1.8798386 0 0 1 1.88004,-1.87897 z" />
    <path
       id="path11067-8"
       style="fill:#250539;fill-opacity:1;stroke-width:0.537735"
       d="m -148.15131,175.99225 a 4.3316216,4.3316216 0 0 0 -4.33118,4.3312 4.3316216,4.3316216 0 0 0 4.33118,4.33225 4.3316216,4.3316216 0 0 0 4.33226,-4.33225 4.3316216,4.3316216 0 0 0 -4.33226,-4.3312 z m 0.0466,2.45221 a 1.8798386,1.8798386 0 0 1 1.88005,1.87899 1.8798386,1.8798386 0 0 1 -1.88005,1.88002 1.8798386,1.8798386 0 0 1 -1.88002,-1.88002 1.8798386,1.8798386 0 0 1 1.88002,-1.87899 z" />
    <path
       id="path11067-7"
       style="fill:#250539;fill-opacity:1;stroke-width:0.537735"
       d="m -260.02255,148.46512 a 4.3316216,4.3316216 0 0 0 -4.3312,4.33119 4.3316216,4.3316216 0 0 0 4.3312,4.33225 4.3316216,4.3316216 0 0 0 4.33226,-4.33225 4.3316216,4.3316216 0 0 0 -4.33226,-4.33119 z m 0.0466,2.45223 a 1.8798386,1.8798386 0 0 1 1.88004,1.87896 1.8798386,1.8798386 0 0 1 -1.88004,1.88004 1.8798386,1.8798386 0 0 1 -1.88004,-1.88004 1.8798386,1.8798386 0 0 1 1.88004,-1.87896 z" />
    <path
       id="path11067-7-9"
       style="fill:#250539;fill-opacity:1;stroke-width:0.537735"
       d="m -221.85853,137.22081 a 4.3316216,4.3316216 0 0 0 -4.3312,4.33117 4.3316216,4.3316216 0 0 0 4.3312,4.33227 4.3316216,4.3316216 0 0 0 4.33226,-4.33227 4.3316216,4.3316216 0 0 0 -4.33226,-4.33117 z m 0.0466,2.45221 a 1.8798386,1.8798386 0 0 1 1.88004,1.87896 1.8798386,1.8798386 0 0 1 -1.88004,1.88004 1.8798386,1.8798386 0 0 1 -1.88004,-1.88004 1.8798386,1.8798386 0 0 1 1.88004,-1.87896 z" />
    <path
       id="path11067-7-9-3"
       style="fill:#250539;fill-opacity:1;stroke-width:0.537735"
       d="m -143.63441,100.91566 a 4.3316216,4.3316216 0 0 0 -4.3312,4.3312 4.3316216,4.3316216 0 0 0 4.3312,4.33224 4.3316216,4.3316216 0 0 0 4.33226,-4.33224 4.3316216,4.3316216 0 0 0 -4.33226,-4.3312 z m 0.0466,2.45223 a 1.8798386,1.8798386 0 0 1 1.88003,1.87897 1.8798386,1.8798386 0 0 1 -1.88003,1.88003 1.8798386,1.8798386 0 0 1 -1.88004,-1.88003 1.8798386,1.8798386 0 0 1 1.88004,-1.87897 z" />
    <path
       id="path11067-7-9-3-8"
       style="fill:#250539;fill-opacity:1;stroke-width:0.537735"
       d="m -59.106125,137.22097 a 4.3316216,4.3316216 0 0 0 -4.331198,4.3312 4.3316216,4.3316216 0 0 0 4.331198,4.33224 4.3316216,4.3316216 0 0 0 4.332265,-4.33224 4.3316216,4.3316216 0 0 0 -4.332265,-4.3312 z m 0.04663,2.45221 a 1.8798386,1.8798386 0 0 1 1.880036,1.87899 1.8798386,1.8798386 0 0 1 -1.880036,1.88004 1.8798386,1.8798386 0 0 1 -1.880036,-1.88004 1.8798386,1.8798386 0 0 1 1.880036,-1.87899 z" />
    <path
       id="path11067-7-9-3-8-8"
       style="fill:#250539;fill-opacity:1;stroke-width:0.537735"
       d="m -97.229555,191.9726 a 4.3316216,4.3316216 0 0 0 -4.331195,4.3312 4.3316216,4.3316216 0 0 0 4.331195,4.33224 4.3316216,4.3316216 0 0 0 4.332265,-4.33224 4.3316216,4.3316216 0 0 0 -4.332265,-4.3312 z m 0.04663,2.45221 a 1.8798386,1.8798386 0 0 1 1.880036,1.87899 1.8798386,1.8798386 0 0 1 -1.880036,1.88001 1.8798386,1.8798386 0 0 1 -1.880037,-1.88001 1.8798386,1.8798386 0 0 1 1.880037,-1.87899 z" />
    <path
       id="path11067-7-9-3-0"
       style="fill:#250539;fill-opacity:1;stroke-width:0.537735"
       d="m -122.5929,87.575783 a 4.3316216,4.3316216 0 0 0 -4.33119,4.331197 4.3316216,4.3316216 0 0 0 4.33119,4.332245 4.3316216,4.3316216 0 0 0 4.33227,-4.332245 4.3316216,4.3316216 0 0 0 -4.33227,-4.331197 z m 0.0466,2.452229 a 1.8798386,1.8798386 0 0 1 1.88004,1.878968 1.8798386,1.8798386 0 0 1 -1.88004,1.880036 1.8798386,1.8798386 0 0 1 -1.88003,-1.880036 1.8798386,1.8798386 0 0 1 1.88003,-1.878968 z" />
    <ellipse
       style="fill:#250539;fill-opacity:1;stroke-width:0.570983"
       id="path12153"
       cx="-228.04485"
       cy="158.44124"
       rx="1.9262234"
       ry="1.8354299" />
    <ellipse
       style="fill:#250539;fill-opacity:1;stroke-width:0.570983"
       id="path12153-8"
       cx="-125.50243"
       cy="191.34106"
       rx="1.9262234"
       ry="1.8354299" />
    <ellipse
       style="fill:#250539;fill-opacity:1;stroke-width:0.570983"
       id="path12153-6"
       cx="-203.42741"
       cy="152.79633"
       rx="1.9262234"
       ry="1.8354299" />
    <ellipse
       style="fill:#250539;fill-opacity:1;stroke-width:0.570983"
       id="path12153-6-2"
       cx="-212.29158"
       cy="135.93016"
       rx="1.9262234"
       ry="1.8354299" />
    <path
       d="m -185.83811,128.97261 h -27.19186 -27.19422 v 2.67263 h 27.19422 27.19186 z"
       style="fill:#250539;fill-opacity:1;stroke:none;stroke-width:0.378472"
       id="rect1210-09-7-1-5-4-9-3-0-65" />
    <path
       id="rect1210-09-7-1-5-4-9-6-5-7-0"
       style="fill:#250539;fill-opacity:1;stroke:none;stroke-width:0.171376"
       d="m -181.32219,123.35017 -3.94268,3.94265 -3.94266,3.94266 0.40977,0.40976 h 2.95965 l 2.46283,-2.46176 3.94267,-3.94265 z" />
    <ellipse
       style="fill:#250539;fill-opacity:1;stroke-width:0.570983"
       id="path12153-6-7"
       cx="-206.32512"
       cy="124.68648"
       rx="1.9262234"
       ry="1.8354299" />
    <path
       d="m -176.60204,176.758 h -16.3831 -16.38453 v 2.67263 h 16.38453 16.3831 z"
       style="fill:#250539;fill-opacity:1;stroke:none;stroke-width:0.293773"
       id="rect1210-09-7-1-5-4-9-3-0-3" />
    <ellipse
       style="fill:#250539;fill-opacity:1;stroke-width:0.570983"
       id="path12153-6-4"
       cx="-209.1218"
       cy="178.09428"
       rx="1.9262234"
       ry="1.8354299" />
    <ellipse
       style="fill:#250539;fill-opacity:1;stroke-width:0.570983"
       id="path12153-6-4-5"
       cx="-199.89111"
       cy="191.23561"
       rx="1.9262234"
       ry="1.8354299" />
    <ellipse
       style="fill:#250539;fill-opacity:1;stroke-width:0.570983"
       id="path12153-6-4-2"
       cx="-158.49089"
       cy="141.55142"
       rx="1.9262234"
       ry="1.8354299" />
    <path
       id="rect1210-09-7-1-5-4-9-6-5-7-4-4-2"
       style="fill:#250539;fill-opacity:1;stroke:none;stroke-width:0.171376"
       d="m -175.02941,125.3215 -3.94265,-3.94266 -3.94268,-3.94267 0.40979,-0.40977 h 2.95963 l 2.46285,2.46178 3.94265,3.94266 z" />
    <path
       id="rect1210-09-7-1-0-2-2-0-19-6"
       style="fill:#250539;fill-opacity:1;stroke:none;stroke-width:0.124863"
       d="m -179.54532,117.0264 h -2.95963 -2.95992 v 2.67263 h 2.95992 2.95963 z" />
    <ellipse
       style="fill:#250539;fill-opacity:1;stroke-width:0.570983"
       id="path12153-6-4-2-6"
       cx="-185.41777"
       cy="118.36272"
       rx="1.9262234"
       ry="1.8354299" />
    <ellipse
       style="fill:#250539;fill-opacity:1;stroke-width:0.570983"
       id="path12153-6-4-2-6-2"
       cx="-188.03531"
       cy="104.87174"
       rx="1.9262234"
       ry="1.8354299" />
    <ellipse
       style="fill:#250539;fill-opacity:1;stroke-width:0.570983"
       id="path12153-6-4-2-6-2-48"
       cx="-146.33255"
       cy="96.707619"
       rx="1.9262234"
       ry="1.8354299" />
    <path
       d="m -176.60204,171.13554 h -22.38798 -22.38991 v 2.67263 h 22.38991 22.38798 z"
       style="fill:#250539;fill-opacity:1;stroke:none;stroke-width:0.343416"
       id="rect1210-09-7-1-5-4-9-3-0-3-3" />
    <ellipse
       style="fill:#250539;fill-opacity:1;stroke-width:0.570983"
       id="path12153-6-4-8"
       cx="-222.2191"
       cy="172.47185"
       rx="1.9262234"
       ry="1.8354299" />
    <path
       id="rect1210-09-7-1-7-7-5-1-0-11"
       style="fill:#250539;fill-opacity:1;stroke:none;stroke-width:0.307204"
       d="m -105.56124,83.219524 h 17.915023 17.916559 v 2.67263 h -17.916559 -17.915023 z" />
    <path
       d="m -44.509946,145.83754 h 32.784352 32.78723 v 2.67263 h -32.78723 -32.784352 z"
       style="fill:#250539;fill-opacity:1;stroke:none;stroke-width:0.415576"
       id="rect1210-09-7-1-5-4-9-2-2" />
    <path
       d="m -48.279714,118.64308 h 22.388 22.3899098 v 2.67265 h -22.3899098 -22.388 z"
       style="fill:#250539;fill-opacity:1;stroke:none;stroke-width:0.343416"
       id="rect1210-09-7-1-5-4-9-3-0-6-3" />
    <path
       id="rect1210-09-7-1-5-4-9-3-0-5-3"
       style="fill:#250539;fill-opacity:1;stroke:none;stroke-width:0.352242"
       d="m -40.020674,177.87184 c 0,0 3.005482,3.00546 3.942676,3.94265 0.853112,0.85312 1.680444,1.68047 1.680444,1.68047 h 22.445786 23.555124 v 2.67196 h -23.555124 -20.593338 -2.959652 l -2.462829,-2.46177 -3.942675,-3.94268 z"
       sodipodi:nodetypes="cscccccccccc" />
    <path
       id="rect1210-09-7-1-5-4-9-6-5-74-8"
       style="fill:#250539;fill-opacity:1;stroke:none;stroke-width:0.171376"
       d="m -69.50104,145.83754 3.942676,3.94267 3.942655,3.94266 -0.409763,0.40976 h -2.959652 l -2.462829,-2.46176 -3.942675,-3.94268 z" />
    <path
       id="rect1210-09-7-1-5-4-9-6-5-74-8-4"
       style="fill:#250539;fill-opacity:1;stroke:none;stroke-width:0.171376"
       d="m -96.69779,184.2769 3.942675,3.94265 3.942655,3.94268 -0.409763,0.40976 h -2.959651 l -2.462829,-2.46178 -3.942676,-3.94266 z" />
    <path
       id="rect1210-09-7-1-5-4-9-6-5-7-45-4"
       style="fill:#250539;fill-opacity:1;stroke:none;stroke-width:0.171376"
       d="m -41.416706,129.76307 0.340781,0.34076 3.942655,3.94266 -0.409763,0.40976 h -2.959652 l -2.462849,-2.46178 -1.48299,-1.48301 h 3.031818 z" />
    <path
       id="rect1210-09-7-1-5-4-9-6-5-7-4-5"
       style="fill:#250539;fill-opacity:1;stroke:none;stroke-width:0.171376"
       d="m -49.025862,154.13263 3.942655,-3.94266 3.942675,-3.94267 -0.409783,-0.40976 h -2.959631 l -2.46285,2.46178 -3.942654,3.94265 z" />
    <path
       d="m -35.711806,113.02064 h 12.031521 12.032589 v 2.67263 h -12.032589 -12.031521 z"
       style="fill:#250539;fill-opacity:1;stroke:none;stroke-width:0.251755"
       id="rect1210-09-7-1-5-4-9-2-2-3" />
    <path
       id="rect1210-09-7-1-5-4-9-6-5-7-4-5-3"
       style="fill:#250539;fill-opacity:1;stroke:none;stroke-width:0.171376"
       d="m -40.227722,121.31573 3.942675,-3.94267 3.942675,-3.94266 -0.409783,-0.40976 h -2.959631 l -2.462849,2.46178 -3.942676,3.94266 z" />
    <path
       id="rect1210-09-7-1-5-4-9-6-5-7-4-5-7"
       style="fill:#250539;fill-opacity:1;stroke:none;stroke-width:0.171376"
       d="m -72.590109,192.57199 3.942655,-3.94268 3.942675,-3.94265 -0.409783,-0.40976 h -2.959631 l -2.46285,2.46178 -3.942655,3.94265 z" />
    <path
       id="rect1210-09-7-1-5-4-9-6-5-7-4-5-7-1"
       style="fill:#250539;fill-opacity:1;stroke:none;stroke-width:0.171376"
       d="m -66.184625,186.16755 3.942654,-3.94266 3.942676,-3.94267 -0.409784,-0.40977 h -2.95963 l -2.46285,2.46179 -3.942634,3.94266 z" />
    <path
       id="rect1210-09-7-1-5-4-9-6-5-7-4-4-4-0-07"
       style="fill:#250539;fill-opacity:1;stroke:none;stroke-width:0.171376"
       d="m -101.78101,83.219524 -2.21761,2.217612 -3.94264,3.942655 -1.88959,-1.890657 3.94266,-3.942654 0.32695,-0.326956 z" />
    <path
       id="rect1210-09-7-1-7-7-5-1-0-1-8"
       style="fill:#250539;fill-opacity:1;stroke:none;stroke-width:0.241059"
       d="m -104.45333,76.265574 h 11.030972 11.031939 v 2.67263 h -11.031939 -11.030972 z" />
    <path
       id="rect1210-09-7-1-7-7-5-1-0-11-9"
       style="fill:#250539;fill-opacity:1;stroke:none;stroke-width:0.210679"
       d="m -92.181874,90.1805 h 8.425538 8.426278 v 2.67263 h -8.426278 -8.425538 z" />
    <path
       id="rect1210-09-7-1-7-7-5-1-0-11-9-0"
       style="fill:#250539;fill-opacity:1;stroke:none;stroke-width:0.384668"
       d="m -80.938182,101.77574 h 28.088566 28.091051 v 2.67263 h -28.091051 -28.088566 z" />
    <path
       id="rect1210-09-7-1-7-7-5-1-0-11-9-0-6"
       style="fill:#250539;fill-opacity:1;stroke:none;stroke-width:0.250944"
       d="m -70.257191,107.39818 h 11.953993 11.955 v 2.67263 h -11.955 -11.953993 z" />
    <path
       id="rect1210-09-7-1-7-7-5-1-0-11-9-0-6-5"
       style="fill:#250539;fill-opacity:1;stroke:none;stroke-width:0.176586"
       d="m -64.634729,113.02064 h 5.919303 5.919816 v 2.67263 h -5.919816 -5.919303 z" />
    <path
       id="rect1210-09-7-1-7-7-5-1-0-11-9-0-1"
       style="fill:#250539;fill-opacity:1;stroke:none;stroke-width:0.210679"
       d="m -65.297535,96.153275 h 8.425538 8.426278 v 2.67263 h -8.426278 -8.425538 z" />
    <path
       id="rect1210-09-7-1-7-7-5-1-0-1-8-3"
       style="fill:#250539;fill-opacity:1;stroke:none;stroke-width:0.241059"
       d="m -104.19316,83.219524 h 11.030973 11.03194 v 2.67263 h -11.03194 -11.030973 z" />
    <path
       id="rect1210-09-7-1-5-4-9-6-5-7-4-4-4-0-2-4"
       style="fill:#250539;fill-opacity:1;stroke:none;stroke-width:0.171494"
       d="m -101.78124,76.265574 -2.21761,2.220673 -3.94265,3.948099 -1.88957,-1.893266 3.94263,-3.948099 0.32696,-0.327407 z" />
    <path
       id="rect1210-09-7-1-5-4-9-6-5-7-4-9-4"
       style="fill:#250539;fill-opacity:1;stroke:none;stroke-width:0.171376"
       d="m 24.059436,141.73206 v 2.63056 h 1.14968 l -0.20481,0.20481 -3.94267,3.94265 -1.88959,-1.89065 3.94268,-3.94266 z" />
    <path
       id="rect1210-09-7-1-5-4-9-6-5-7-4-6-0"
       style="fill:#250539;fill-opacity:1;stroke:none;stroke-width:0.171376"
       d="m -37.543033,126.16117 0.409763,0.40975 -3.942655,3.94267 -0.944795,0.9448 v -0.94693 h -2.833335 l 1.888521,-1.88852 2.462849,-2.46177 z" />
    <path
       id="rect1210-09-7-1-5-4-9-6-5-7-1-5"
       style="fill:#250539;fill-opacity:1;stroke:none;stroke-width:0.171376"
       d="m -52.79561,113.02064 3.942655,3.94266 3.942675,3.94265 -0.409762,0.40976 h -2.959672 l -2.46283,-2.46176 -3.942654,-3.94265 z" />
    <path
       id="rect1210-09-7-1-5-4-9-6-5-8-8"
       style="fill:#250539;fill-opacity:1;stroke:none;stroke-width:0.171376"
       d="m -63.810458,123.3497 3.942655,3.94267 3.942675,3.94266 -0.409763,0.40976 h -2.959651 l -2.462829,-2.46178 -3.942675,-3.94266 z" />
    <path
       id="rect1210-09-7-1-5-4-9-6-5-8-8-3"
       style="fill:#250539;fill-opacity:1;stroke:none;stroke-width:0.171376"
       d="m -74.773107,101.77574 3.942654,3.94265 3.942676,3.94266 -0.409763,0.40976 h -2.959651 l -2.46283,-2.46176 -3.942675,-3.94268 z" />
    <path
       id="rect1210-09-7-1-5-4-9-6-5-8-8-3-6"
       style="fill:#250539;fill-opacity:1;stroke:none;stroke-width:0.171376"
       d="m -69.150645,107.39818 3.942655,3.94267 3.942675,3.94266 -0.409763,0.40976 h -2.959651 l -2.462829,-2.46178 -3.942675,-3.94265 z" />
    <path
       id="rect1210-09-7-1-5-4-9-6-5-8-8-8"
       style="fill:#250539;fill-opacity:1;stroke:none;stroke-width:0.171376"
       d="m -63.810294,134.5936 -1.889588,1.89065 3.805718,3.80572 a 3.0630243,3.0630243 0 0 1 2.066871,-1.71337 l -0.04026,-0.0403 z m 7.680439,7.68044 a 3.0630243,3.0630243 0 0 1 -0.220812,0.61465 h 0.01643 l 0.409783,-0.40976 z" />
    <path
       d="m -59.295261,128.972 h 8.637004 8.637763 v 2.67265 h -8.637763 -8.637004 z"
       style="fill:#250539;fill-opacity:1;stroke:none;stroke-width:0.213304"
       id="rect1210-09-7-1-5-4-9-3-0-2-2-1" />
    <path
       id="rect1210-09-7-1-5-4-9-3-0-2-2-1-0"
       style="fill:#250539;fill-opacity:1;stroke:none;stroke-width:0.459827"
       d="m -56.345758,140.21567 a 14.234503,3.0630243 0 0 1 1.425737,1.3365 14.234503,3.0630243 0 0 1 -1.430646,1.33652 h 26.457402 40.142391 v -2.67302 h -40.142391 z" />
    <path
       id="rect1210-09-7-1-0-2-2-0-7-8"
       style="fill:#250539;fill-opacity:1;stroke:none;stroke-width:0.353322"
       d="m -64.985124,151.46 h 23.698103 23.700137 v 2.67263 h -23.700137 -23.698103 z" />
    <path
       id="rect1210-09-7-1-0-2-2-0-7-8-1"
       style="fill:#250539;fill-opacity:1;stroke:none;stroke-width:0.29901"
       d="m -2.3249812,157.08123 h 16.9722972 16.97376 v 2.67263 H 14.647316 -2.3249812 Z" />
    <path
       id="path11628-5"
       style="fill:#250539;fill-opacity:1;stroke-width:0.546533"
       d="m -18.887045,96.154528 a 6.9581615,6.9581615 0 0 1 6.957505,6.957522 6.9581615,6.9581615 0 0 1 -6.957505,6.95855 6.9581615,6.9581615 0 0 1 -6.958572,-6.95855 6.9581615,6.9581615 0 0 1 6.958572,-6.957522 z m 0,2.671973 a 4.2855314,4.2855314 0 0 0 -4.285551,4.285549 4.2855314,4.2855314 0 0 0 4.285551,4.28553 4.2855314,4.2855314 0 0 0 4.284484,-4.28553 4.2855314,4.2855314 0 0 0 -4.284484,-4.285549 z" />
    <path
       id="path11628-7-9"
       style="fill:#250539;fill-opacity:1;stroke-width:0.546533"
       d="m -64.009865,77.598006 a 6.9581615,6.9581615 0 0 1 6.957484,6.957505 6.9581615,6.9581615 0 0 1 -6.957484,6.958572 6.9581615,6.9581615 0 0 1 -6.958593,-6.958572 6.9581615,6.9581615 0 0 1 6.958593,-6.957505 z m 0,2.671953 a 4.2855314,4.2855314 0 0 0 -4.285572,4.285552 4.2855314,4.2855314 0 0 0 4.285572,4.285551 4.2855314,4.2855314 0 0 0 4.284463,-4.285551 4.2855314,4.2855314 0 0 0 -4.284463,-4.285552 z" />
    <path
       id="path11067-2-0"
       style="fill:#250539;fill-opacity:1;stroke-width:0.537735"
       d="m 25.986106,137.40066 a 4.3316216,4.3316216 0 0 1 4.33119,4.3312 4.3316216,4.3316216 0 0 1 -4.33119,4.33226 4.3316216,4.3316216 0 0 1 -4.33227,-4.33226 4.3316216,4.3316216 0 0 1 4.33227,-4.3312 z m -0.0466,2.45223 a 1.8798386,1.8798386 0 0 0 -1.88003,1.87897 1.8798386,1.8798386 0 0 0 1.88003,1.88003 1.8798386,1.8798386 0 0 0 1.88004,-1.88003 1.8798386,1.8798386 0 0 0 -1.88004,-1.87897 z" />
    <path
       id="path11067-8-2"
       style="fill:#250539;fill-opacity:1;stroke-width:0.537735"
       d="m 45.862796,128.78773 a 4.3316216,4.3316216 0 0 1 4.33117,4.3312 4.3316216,4.3316216 0 0 1 -4.33117,4.33224 4.3316216,4.3316216 0 0 1 -4.33227,-4.33224 4.3316216,4.3316216 0 0 1 4.33227,-4.3312 z m -0.0466,2.45221 a 1.8798386,1.8798386 0 0 0 -1.88005,1.87899 1.8798386,1.8798386 0 0 0 1.88005,1.88001 1.8798386,1.8798386 0 0 0 1.88002,-1.88001 1.8798386,1.8798386 0 0 0 -1.88002,-1.87899 z" />
    <path
       id="path11067-7-3"
       style="fill:#250539;fill-opacity:1;stroke-width:0.537735"
       d="m -0.48802317,115.64822 a 4.3316216,4.3316216 0 0 1 4.33119697,4.33118 4.3316216,4.3316216 0 0 1 -4.33119697,4.33226 4.3316216,4.3316216 0 0 1 -4.33224503,-4.33226 4.3316216,4.3316216 0 0 1 4.33224503,-4.33118 z m -0.04663,2.45221 a 1.8798386,1.8798386 0 0 0 -1.88003603,1.87897 1.8798386,1.8798386 0 0 0 1.88003603,1.88003 1.8798386,1.8798386 0 0 0 1.88003697,-1.88003 1.8798386,1.8798386 0 0 0 -1.88003697,-1.87897 z" />
    <path
       id="path11067-7-9-3-7"
       style="fill:#250539;fill-opacity:1;stroke-width:0.537735"
       d="m -40.923725,84.319579 a 4.3316216,4.3316216 0 0 1 4.331176,4.331197 4.3316216,4.3316216 0 0 1 -4.331176,4.332245 4.3316216,4.3316216 0 0 1 -4.332286,-4.332245 4.3316216,4.3316216 0 0 1 4.332286,-4.331197 z m -0.04663,2.452209 a 1.8798386,1.8798386 0 0 0 -1.880036,1.878988 1.8798386,1.8798386 0 0 0 1.880036,1.880036 1.8798386,1.8798386 0 0 0 1.880036,-1.880036 1.8798386,1.8798386 0 0 0 -1.880036,-1.878988 z" />
    <ellipse
       style="fill:#250539;fill-opacity:1;stroke-width:0.570983"
       id="path12153-5"
       cx="-11.187778"
       cy="184.8533"
       rx="1.9262234"
       ry="1.8354299"
       transform="scale(-1,1)" />
    <ellipse
       style="fill:#250539;fill-opacity:1;stroke-width:0.570983"
       id="path12153-5-9"
       cx="-7.9765878"
       cy="172.47244"
       rx="1.9262234"
       ry="1.8354299"
       transform="scale(-1,1)" />
    <ellipse
       style="fill:#250539;fill-opacity:1;stroke-width:0.570983"
       id="path12153-5-2"
       cx="43.693939"
       cy="191.23561"
       rx="1.9262234"
       ry="1.8354299"
       transform="scale(-1,1)" />
    <ellipse
       style="fill:#250539;fill-opacity:1;stroke-width:0.570983"
       id="path12153-5-2-765"
       cx="11.275342"
       cy="166.85001"
       rx="1.9262234"
       ry="1.8354299"
       transform="scale(-1,1)" />
    <path
       d="M -40.502438,131.78323 H 1.5992668 43.704626 v 2.67263 H 1.5992668 -40.502438 Z"
       style="fill:#250539;fill-opacity:1;stroke:none;stroke-width:0.470939"
       id="rect1210-09-7-1-5-4-9-3-0-3-7" />
    <ellipse
       style="fill:#250539;fill-opacity:1;stroke-width:0.570983"
       id="path12153-6-4-5-6"
       cx="-10.249164"
       cy="141.55217"
       rx="1.9262234"
       ry="1.8354299"
       transform="scale(-1,1)" />
    <ellipse
       style="fill:#250539;fill-opacity:1;stroke-width:0.570983"
       id="path12153-6-4-2-6-5-2"
       cx="46.112564"
       cy="108.7345"
       rx="1.9262234"
       ry="1.8354299"
       transform="scale(-1,1)" />
    <ellipse
       style="fill:#250539;fill-opacity:1;stroke-width:0.570983"
       id="path12153-6-4-2-6-2-4"
       cx="82.390419"
       cy="77.601891"
       rx="1.9262234"
       ry="1.8354299"
       transform="scale(-1,1)" />
    <ellipse
       style="fill:#250539;fill-opacity:1;stroke-width:0.570983"
       id="path12153-6-4-2-6-2-4-99"
       cx="75.330055"
       cy="91.516808"
       rx="1.9262234"
       ry="1.8354299"
       transform="scale(-1,1)" />
    <ellipse
       style="fill:#250539;fill-opacity:1;stroke-width:0.570983"
       id="path12153-6-4-2-6-2-4-9"
       cx="114.11715"
       cy="89.060921"
       rx="1.9262234"
       ry="1.8354299"
       transform="scale(-1,1)" />
    <path
       d="m -40.502459,126.16078 h 22.38798 22.3899308 v 2.67264 h -22.3899308 -22.38798 z"
       style="fill:#250539;fill-opacity:1;stroke:none;stroke-width:0.343416"
       id="rect1210-09-7-1-5-4-9-3-0-3-3-7" />
    <path
       id="rect1210-09-7-1-5-4-9-6-5-7-45-4-8"
       style="fill:#250539;fill-opacity:1;stroke:none;stroke-width:0.171376"
       d="m -56.96754,169.11598 0.34078,0.34076 3.942655,3.94267 -0.409763,0.40976 h -2.959651 l -2.46285,-2.46178 -1.482989,-1.48301 h 3.031818 z" />
    <path
       id="rect1210-09-7-1-5-4-9-6-5-7-4-6-0-1"
       style="fill:#250539;fill-opacity:1;stroke:none;stroke-width:0.171376"
       d="m -53.093868,165.51408 0.409763,0.40976 -3.942655,3.94268 -0.944794,0.94479 v -0.94693 h -2.833335 l 1.88852,-1.88852 2.46285,-2.46178 z" />
    <path
       d="m -56.053272,171.13615 h 32.013533 32.0162848 v 2.67263 H -24.039739 -56.053272 Z"
       style="fill:#250539;fill-opacity:1;stroke:none;stroke-width:0.410658"
       id="rect1210-09-7-1-5-4-9-3-0-3-7-7" />
    <path
       d="m -56.053293,165.51369 h 22.387979 22.389931 v 2.67265 h -22.389931 -22.387979 z"
       style="fill:#250539;fill-opacity:1;stroke:none;stroke-width:0.343416"
       id="rect1210-09-7-1-5-4-9-3-0-3-3-7-4" />
    <ellipse
       style="fill:#250539;fill-opacity:1;stroke-width:0.570983"
       id="path12153-6-4-8-6"
       cx="-5.1146798"
       cy="127.4971"
       rx="1.9262234"
       ry="1.8354299"
       transform="scale(-1,1)" />
    <ellipse
       style="fill:#250539;fill-opacity:1;stroke-width:0.570983"
       id="path12153-6-4-8-6-8"
       cx="90.387894"
       cy="102.57261"
       rx="1.9262234"
       ry="1.8354299"
       transform="scale(-1,1)" />
    <ellipse
       style="fill:#250539;fill-opacity:1;stroke-width:0.570983"
       id="path12153-6-4-8-6-8-4"
       cx="85.455322"
       cy="97.603912"
       rx="1.9262234"
       ry="1.8354299"
       transform="scale(-1,1)" />
    <ellipse
       style="fill:#250539;fill-opacity:1;stroke-width:0.570983"
       id="path12153-6-4-8-6-6"
       cx="11.647664"
       cy="114.35695"
       rx="1.9262234"
       ry="1.8354299"
       transform="scale(-1,1)" />
    <ellipse
       style="fill:#250539;fill-opacity:1;stroke-width:0.570983"
       id="path12153-6-4-8-6-6-4"
       cx="52.77486"
       cy="124.68648"
       rx="1.9262234"
       ry="1.8354299"
       transform="scale(-1,1)" />
    <path
       id="rect1210-09-7-1-5-4-9-6-5-74-8-7"
       style="fill:#250539;fill-opacity:1;stroke:none;stroke-width:0.171376"
       d="m -85.454098,184.2769 3.942676,3.94265 3.942655,3.94268 -0.409763,0.40976 h -2.959652 l -2.462829,-2.46178 -3.942675,-3.94266 z" />
    <path
       id="rect1210-09-7-1-5-4-9-6-5-74-8-7-7"
       style="fill:#250539;fill-opacity:1;stroke:none;stroke-width:0.171376"
       d="m -90.292286,190.68133 3.942676,3.94266 3.942655,3.94265 -0.409763,0.40977 h -2.959652 l -2.462829,-2.46177 -3.942675,-3.94265 z" />
    <path
       d="m -61.668709,177.87245 h 5.274286 5.274738 v 2.67263 h -5.274738 -5.274286 z"
       style="fill:#250539;fill-opacity:1;stroke:none;stroke-width:0.166685"
       id="rect1210-09-7-1-5-4-9-3-0-2-01" />
    <path
       d="m -46.041149,177.87184 h 32.675415 32.67825 v 2.67263 h -32.67825 -32.675415 z"
       style="fill:#250539;fill-opacity:1;stroke:none;stroke-width:0.414884"
       id="rect1210-09-7-1-5-4-9-3-0-2-0-5" />
    <path
       id="path11628-7-8-1"
       style="fill:#250539;fill-opacity:1;stroke-width:0.546533"
       d="m 23.598066,172.25063 a 6.9581615,6.9581615 0 0 1 6.95751,6.95752 6.9581615,6.9581615 0 0 1 -6.95751,6.95858 6.9581615,6.9581615 0 0 1 -6.95857,-6.95858 6.9581615,6.9581615 0 0 1 6.95857,-6.95752 z m 0,2.67197 a 4.2855314,4.2855314 0 0 0 -4.28555,4.28555 4.2855314,4.2855314 0 0 0 4.28555,4.28553 4.2855314,4.2855314 0 0 0 4.28448,-4.28553 4.2855314,4.2855314 0 0 0 -4.28448,-4.28555 z" />
    <path
       id="path11628-7-8-1-7"
       style="fill:#250539;fill-opacity:1;stroke-width:0.546533"
       d="m 37.492596,151.46004 a 6.9581615,6.9581615 0 0 1 6.9575,6.9575 6.9581615,6.9581615 0 0 1 -6.9575,6.95858 6.9581615,6.9581615 0 0 1 -6.95857,-6.95858 6.9581615,6.9581615 0 0 1 6.95857,-6.9575 z m 0,2.67195 a 4.2855314,4.2855314 0 0 0 -4.28555,4.28555 4.2855314,4.2855314 0 0 0 4.28555,4.28556 4.2855314,4.2855314 0 0 0 4.28448,-4.28556 4.2855314,4.2855314 0 0 0 -4.28448,-4.28555 z" />
    <path
       id="path11067-3"
       style="fill:#250539;fill-opacity:1;stroke-width:0.537735"
       d="m -48.82514,174.87747 a 4.3316216,4.3316216 0 0 1 4.331197,4.3312 4.3316216,4.3316216 0 0 1 -4.331197,4.33226 4.3316216,4.3316216 0 0 1 -4.332266,-4.33226 4.3316216,4.3316216 0 0 1 4.332266,-4.3312 z m -0.04663,2.45223 a 1.8798386,1.8798386 0 0 0 -1.880036,1.87897 1.8798386,1.8798386 0 0 0 1.880036,1.88003 1.8798386,1.8798386 0 0 0 1.880036,-1.88003 1.8798386,1.8798386 0 0 0 -1.880036,-1.87897 z" />
    <path
       id="path11067-3-8"
       style="fill:#250539;fill-opacity:1;stroke-width:0.537735"
       d="m -28.804693,193.30871 a 4.3316216,4.3316216 0 0 1 4.331197,4.3312 4.3316216,4.3316216 0 0 1 -4.331197,4.33224 4.3316216,4.3316216 0 0 1 -4.332265,-4.33224 4.3316216,4.3316216 0 0 1 4.332265,-4.3312 z m -0.04663,2.45223 a 1.8798386,1.8798386 0 0 0 -1.880036,1.87897 1.8798386,1.8798386 0 0 0 1.880036,1.88003 1.8798386,1.8798386 0 0 0 1.880036,-1.88003 1.8798386,1.8798386 0 0 0 -1.880036,-1.87897 z" />
    <path
       id="path11067-3-8-1"
       style="fill:#250539;fill-opacity:1;stroke-width:0.537735"
       d="m -5.2454372,154.08635 a 4.3316216,4.3316216 0 0 1 4.33119703,4.33119 4.3316216,4.3316216 0 0 1 -4.33119703,4.33227 4.3316216,4.3316216 0 0 1 -4.332266,-4.33227 4.3316216,4.3316216 0 0 1 4.332266,-4.33119 z m -0.04663,2.45223 a 1.8798386,1.8798386 0 0 0 -1.880036,1.87896 1.8798386,1.8798386 0 0 0 1.880036,1.88004 1.8798386,1.8798386 0 0 0 1.880036,-1.88004 1.8798386,1.8798386 0 0 0 -1.880036,-1.87896 z" />
    <ellipse
       style="fill:#250539;fill-opacity:1;stroke-width:0.570983"
       id="path12153-5-2-76"
       cx="17.586851"
       cy="152.79633"
       rx="1.9262234"
       ry="1.8354299"
       transform="scale(-1,1)" />
  </g>
</svg>
